<svg xmlns="http://www.w3.org/2000/svg" width="305.115" height="326.909" viewBox="0 0 305.115 326.909">
  <path id="Icon_metro-mail-read" data-name="Icon metro-mail-read" d="M200.644,132.691H91.674v21.794H200.644ZM135.262,89.1H91.674V110.9h43.588ZM266.026,79.75V45.516H218.075L157.056,1.928,96.037,45.516H48.087V79.75L4.5,110.9V328.837H309.613V110.9L266.026,79.75ZM69.88,67.31H244.232v83.366l-87.176,71.916L69.88,150.676V67.31ZM26.293,154.485l85.824,65.254L26.293,285.249V154.485ZM48.087,307.043l86.495-70.234,22.475,17.112,22.432-17.069,86.537,70.192H48.087Zm239.733-21.794-85.941-65.4,85.941-65.361V285.249Z" transform="translate(-4.499 -1.928)" fill="#eee"/>
</svg>
