<svg id="Component_42_2" data-name="Component 42 – 2" xmlns="http://www.w3.org/2000/svg" xmlns:xlink="http://www.w3.org/1999/xlink" width="42" height="42" viewBox="0 0 42 42">
  <defs>
    <clipPath id="clip-path">
      <rect id="Rectangle_78" data-name="Rectangle 78" width="42" height="42" transform="translate(979 2938)" fill="#fff"/>
    </clipPath>
  </defs>
  <g id="Mask_Group_18" data-name="Mask Group 18" transform="translate(-979 -2938)" clip-path="url(#clip-path)">
    <g id="Group_112" data-name="Group 112" transform="translate(1)">
      <g id="Layer_2" data-name="Layer 2" transform="translate(979 2939)">
        <g id="Layer_1" data-name="Layer 1">
          <rect id="Rectangle_59" data-name="Rectangle 59" width="40" height="40" rx="6.48" fill="#fff"/>
          <path id="Path_51" data-name="Path 51" d="M8.642,24a2.6,2.6,0,0,1-1.718-1.676c-.748-2.051-.97-10.613.471-12.3a2.771,2.771,0,0,1,1.884-.942c3.866-.416,15.809-.36,17.18.139a2.688,2.688,0,0,1,1.69,1.621c.817,2.12.845,9.823-.111,11.86a2.619,2.619,0,0,1-1.205,1.219c-1.441.72-16.28.707-18.192.083Zm6.138-4.018,6.928-3.6-6.928-3.63Z" transform="translate(2.442 3.392)" fill="#212121"/>
        </g>
      </g>
      <g id="Layer_2-2" data-name="Layer 2" transform="translate(979 2981)">
        <g id="Layer_1-2" data-name="Layer 1">
          <rect id="Rectangle_59-2" data-name="Rectangle 59" width="40" height="40" rx="6.48" fill="#fd3832"/>
          <path id="Path_51-2" data-name="Path 51" d="M8.642,24a2.6,2.6,0,0,1-1.718-1.676c-.748-2.051-.97-10.613.471-12.3a2.771,2.771,0,0,1,1.884-.942c3.866-.416,15.809-.36,17.18.139a2.688,2.688,0,0,1,1.69,1.621c.817,2.12.845,9.823-.111,11.86a2.619,2.619,0,0,1-1.205,1.219c-1.441.72-16.28.707-18.192.083Zm6.138-4.018,6.928-3.6-6.928-3.63Z" transform="translate(2.442 3.392)" fill="#fff"/>
        </g>
      </g>
    </g>
  </g>
</svg>
