<svg id="Component_39_2" data-name="Component 39 – 2" xmlns="http://www.w3.org/2000/svg" xmlns:xlink="http://www.w3.org/1999/xlink" width="42" height="42" viewBox="0 0 42 42">
  <defs>
    <clipPath id="clip-path">
      <rect id="Rectangle_75" data-name="Rectangle 75" width="42" height="42" transform="translate(937 2923)" fill="#fff"/>
    </clipPath>
  </defs>
  <g id="Mask_Group_15" data-name="Mask Group 15" transform="translate(-937 -2923)" clip-path="url(#clip-path)">
    <g id="Group_109" data-name="Group 109" transform="translate(-1)">
      <g id="Layer_2" data-name="Layer 2" transform="translate(939 2965)">
        <g id="Layer_1" data-name="Layer 1">
          <rect id="Rectangle_57" data-name="Rectangle 57" width="40" height="40" rx="6.48" fill="#00c7ff"/>
          <path id="Path_48" data-name="Path 48" d="M13.6,22.035a4.558,4.558,0,0,1-4.226-3.159,4.517,4.517,0,0,0,1.954,0A4.545,4.545,0,0,1,8.416,16.7a4.406,4.406,0,0,1-.665-2.425,4.489,4.489,0,0,0,2.023.554A4.572,4.572,0,0,1,7.9,12.059a4.5,4.5,0,0,1,.513-3.284,13.01,13.01,0,0,0,9.366,4.794,1.212,1.212,0,0,0-.069-.5,4.545,4.545,0,0,1,7.731-3.8.236.236,0,0,0,.236.069,9.144,9.144,0,0,0,2.646-1.011,4.655,4.655,0,0,1-1.9,2.466,8.729,8.729,0,0,0,2.536-.679l-.457.679a8.923,8.923,0,0,1-1.649,1.566.152.152,0,0,0-.069.139,12.594,12.594,0,0,1-.083,2.023,13.384,13.384,0,0,1-1.178,4.046,13.079,13.079,0,0,1-2.452,3.589,12.151,12.151,0,0,1-6.249,3.478,13.565,13.565,0,0,1-2.536.3,12.844,12.844,0,0,1-7.26-1.954l-.111-.069a9.2,9.2,0,0,0,4.517-.651A9.048,9.048,0,0,0,13.6,22.035Z" transform="translate(2.668 3.057)" fill="#fff"/>
        </g>
      </g>
      <g id="Layer_2-2" data-name="Layer 2" transform="translate(939 2923)">
        <g id="Layer_1-2" data-name="Layer 1">
          <rect id="Rectangle_57-2" data-name="Rectangle 57" width="40" height="40" rx="6.48" fill="#fff"/>
          <path id="Path_48-2" data-name="Path 48" d="M13.6,22.035a4.558,4.558,0,0,1-4.226-3.159,4.517,4.517,0,0,0,1.954,0A4.545,4.545,0,0,1,8.416,16.7a4.406,4.406,0,0,1-.665-2.425,4.489,4.489,0,0,0,2.023.554A4.572,4.572,0,0,1,7.9,12.059a4.5,4.5,0,0,1,.513-3.284,13.01,13.01,0,0,0,9.366,4.794,1.212,1.212,0,0,0-.069-.5,4.545,4.545,0,0,1,7.731-3.8.236.236,0,0,0,.236.069,9.144,9.144,0,0,0,2.646-1.011,4.655,4.655,0,0,1-1.9,2.466,8.729,8.729,0,0,0,2.536-.679l-.457.679a8.923,8.923,0,0,1-1.649,1.566.152.152,0,0,0-.069.139,12.594,12.594,0,0,1-.083,2.023,13.384,13.384,0,0,1-1.178,4.046,13.079,13.079,0,0,1-2.452,3.589,12.151,12.151,0,0,1-6.249,3.478,13.565,13.565,0,0,1-2.536.3,12.844,12.844,0,0,1-7.26-1.954l-.111-.069a9.2,9.2,0,0,0,4.517-.651A9.048,9.048,0,0,0,13.6,22.035Z" transform="translate(2.668 3.057)" fill="#212121"/>
        </g>
      </g>
    </g>
  </g>
</svg>
