<svg id="Component_43_2" data-name="Component 43 – 2" xmlns="http://www.w3.org/2000/svg" xmlns:xlink="http://www.w3.org/1999/xlink" width="42" height="42" viewBox="0 0 42 42">
  <defs>
    <clipPath id="clip-path">
      <rect id="Rectangle_79" data-name="Rectangle 79" width="42" height="42" transform="translate(1036 2938)" fill="#fff"/>
    </clipPath>
  </defs>
  <g id="Mask_Group_19" data-name="Mask Group 19" transform="translate(-1036 -2938)" clip-path="url(#clip-path)">
    <g id="Group_113" data-name="Group 113" transform="translate(-1)">
      <g id="Layer_2" data-name="Layer 2" transform="translate(1038 2939)">
        <g id="Layer_1" data-name="Layer 1">
          <rect id="Rectangle_58" data-name="Rectangle 58" width="40" height="40" rx="6.48" fill="#fff"/>
          <path id="Path_49" data-name="Path 49" d="M7.09,27.272l.315-1.192c.329-1.219.671-2.425.986-3.644a.89.89,0,0,0,0-.589,10.027,10.027,0,1,1,4.329,4.219,1,1,0,0,0-.616,0c-2.712.6-4.466,1.1-5.014,1.206Zm2.342-2.3c1-.26,1.918-.493,2.836-.74a.822.822,0,0,1,.685.1A8.219,8.219,0,0,0,18.5,25.381a8.384,8.384,0,1,0-8.644-4.233,1.754,1.754,0,0,1,.192,1.589c-.247.671-.342,1.425-.616,2.233Z" transform="translate(2.849 2.846)" fill="#212121"/>
          <path id="Path_50" data-name="Path 50" d="M18.631,20.662c-2-.07-5.2-1.654-7.388-5.453a3.084,3.084,0,0,1,.477-3.939,1.4,1.4,0,0,1,1.318-.2c.112,0,.224.182.28.308.294.659.575,1.332.827,2,.14.364-.112.7-.631,1.29a.449.449,0,0,0,0,.589,7.009,7.009,0,0,0,3.561,3.056.421.421,0,0,0,.547-.14c.813-1,.9-1.29,1.4-1.093,2.075,1,2.229,1.037,2.243,1.262a2.257,2.257,0,0,1-2.635,2.313Z" transform="translate(4.08 4.181)" fill="#212121"/>
        </g>
      </g>
      <g id="Layer_2-2" data-name="Layer 2" transform="translate(1038 2981)">
        <g id="Layer_1-2" data-name="Layer 1">
          <rect id="Rectangle_58-2" data-name="Rectangle 58" width="40" height="40" rx="6.48" fill="#189d0e"/>
          <path id="Path_49-2" data-name="Path 49" d="M7.09,27.272l.315-1.192c.329-1.219.671-2.425.986-3.644a.89.89,0,0,0,0-.589,10.027,10.027,0,1,1,4.329,4.219,1,1,0,0,0-.616,0c-2.712.6-4.466,1.1-5.014,1.206Zm2.342-2.3c1-.26,1.918-.493,2.836-.74a.822.822,0,0,1,.685.1A8.219,8.219,0,0,0,18.5,25.381a8.384,8.384,0,1,0-8.644-4.233,1.754,1.754,0,0,1,.192,1.589c-.247.671-.342,1.425-.616,2.233Z" transform="translate(2.849 2.846)" fill="#fff"/>
          <path id="Path_50-2" data-name="Path 50" d="M18.631,20.662c-2-.07-5.2-1.654-7.388-5.453a3.084,3.084,0,0,1,.477-3.939,1.4,1.4,0,0,1,1.318-.2c.112,0,.224.182.28.308.294.659.575,1.332.827,2,.14.364-.112.7-.631,1.29a.449.449,0,0,0,0,.589,7.009,7.009,0,0,0,3.561,3.056.421.421,0,0,0,.547-.14c.813-1,.9-1.29,1.4-1.093,2.075,1,2.229,1.037,2.243,1.262a2.257,2.257,0,0,1-2.635,2.313Z" transform="translate(4.08 4.181)" fill="#fff"/>
        </g>
      </g>
    </g>
  </g>
</svg>
