<svg id="LOGO" xmlns="http://www.w3.org/2000/svg" width="214.858" height="51" viewBox="0 0 214.858 51">
  <g id="Group_2" data-name="Group 2" transform="translate(-58.142 -223)">
    <path id="EDGE_copy_2" data-name="EDGE copy 2" d="M44.6,12.887C44.6,5.328,49.889,0,57.449,0,63.5,0,67.888,3.1,69.22,8.28h-6.8a5.293,5.293,0,0,0-4.968-2.592c-3.96,0-6.588,2.808-6.588,7.2,0,4.68,2.664,7.416,7.092,7.416a6.054,6.054,0,0,0,6.12-4.464H56.261V11.3H69.652v5.724a12.376,12.376,0,0,1-12.167,8.712C49.925,25.739,44.6,20.447,44.6,12.887ZM19.473,25.559V.288H28.94C37,.288,42.188,5.4,42.188,12.923c0,7.488-5.184,12.635-13.247,12.635Zm6.156-5.328h2.916c4.644,0,7.38-2.664,7.38-7.308s-2.736-7.38-7.38-7.38H25.629ZM0,25.559V.288H15.479V5.22H6.156v5.112H14.4v4.752H6.156v5.544h9.324v4.932Z" transform="translate(58.142 235.773)" fill="#fff"/>
    <path id="EDGE_copy_3" data-name="EDGE copy 3" d="M1051.376,649.233H1040.59V674.5h16.923l-1.264-4.932h-9.5v-5.544h8.244l-1.083-4.752h-7.161v-5.112h5.894Z" transform="translate(-910.429 -413.172)" fill="#fff"/>
    <text id="WORKS" transform="translate(144 261)" fill="#fff" font-size="36" font-family="Poppins-Regular, Poppins"><tspan x="0" y="0">WORKS</tspan></text>
  </g>
</svg>
