<svg xmlns="http://www.w3.org/2000/svg" width="265.777" height="132.45" viewBox="0 0 265.777 132.45">
  <g id="Group_73" data-name="Group 73" transform="translate(-466.931 -8251.675)">
    <g id="Simple_world_map" transform="translate(449.606 8239.929)" opacity="0.4">
      <g id="Group_47" data-name="Group 47" transform="translate(17.394 11.871)">
        <path id="Path_27" data-name="Path 27" d="M163.387,119.134l-.791.825h-1.333v-1.214l1.033-.666h1.09Zm2.287-3.558v1.2l-1.017-.61v-.932h1.017V111.86h-2.6L156.9,116l-1.519-1.745v3.428h-3.756l2.18,5.969h7.155l5.506-6.37.248-1.722ZM68.762,48.145l1.423-.971H71.9l-1.418.971ZM81.734,42.99l-1.819,1.577H75.7l-1.3.893H75.4l-1.4.956H73L74.4,45.46h-2.75l-1.192.926-1.214.121.243-2.092h-.937l-1.1.728-2.033,3h-1.2l2.3-3.73,2.716-.581-.152-.51-1.79-.061-.847-.516-1.062.516H64.148l.508-1.1-2.57-1.176H40.168L32.95,48.6v5.851l2.635,2.636L44.8,58.274l1.229,1.865,2.592-.091,2.139,4.2,3.986-5,9.477.03.627,4.737,1.5.04.04-5.9L81.733,45.042l1.045-.181.593-1.868H81.733Zm9.07-.81h5.354l-1.113-1.772-1.005-.24V38.9ZM51.113,70.847,49.048,66.4l1.715-2.152-2.139-4.2-2.592.091L44.8,58.269l-9.217-1.185.018.018L36,61.252l2.835,5.365,1.162-.9-2.236-4.767V58.269h1.319l.051,2.5,4.236,9.951,6.907,2.88,1.724-.457,1.517,1.547.756-1.344h1.591L55.63,71.6h1.364l1.774-1.322.075-1.926-1.94-.034-1.542,2.53Zm76.468-43.142,2.564-1.248v-.351l-1.271-1.289-1.779.591-2.135-.045-.452.616-1.214-.028v1.141ZM150.4,54.785l.006-1.211-1.372-.036-.011.892Zm-52-38.72v1.276l6.37.091,1.632,2.816V22.8l-3.055,1.735.09,3.456,1.92,1.941h2.27l3.468-3.665,4.9-1.444,1.835-1.406,3.7-.229,2.592-.765,4.885-7.765,3.01-.616,1.062-1.067L124.4,12.1l-7.5.873H107.82l-5.235,1.819ZM246.14,65.227l-.74-.774-1.214,1.728,1.214,1.135ZM234.484,43.806l.243-1.364-2.547-.409-.971-1.592h-4.851l-9.917-2.456-1.09,2.456-4.032-1.228-3.01,2.293,9.8,5.727,11.34.121,1.367-2.781Zm2.152,25.967-1.457.322v.858l.593.717.864-1.079ZM231.208,40.44l.971,1.592,2.547.409-.243,1.364-3.66.766-1.372,2.781-11.34-.121-9.8-5.727-4.241,3.233.706,3.282L200.525,49.6l1.214,2.971,4.518,2.061.181,3.639,11.826,4.09,2.18-2,4.642,2-.638,1.728,2.457,4.094,4.3-2.18,2.812,2.406,1.192-.678.045,1.158,7.048-2.519,2.3-5.157L240.5,54.445l2.112-2.3h-2.428l-.779.5-1.525-2.5,1.943-1.7,1.333,2.544,1.869-1.286,3.586-2.47V42.44l-5.941-1.516L236.3,36.648h-4.241l.966,3.426Zm24.5,7.206,1.66-.023.706-1.205-3.688-1.546.073,3.047.729.432Zm-4.586,7.043-.271.937,3.654-.539.282,1.411.83-.352.09-1.11,2.451-.63-.13-3.2-1.113-1.942-1.107-.321.633,2.911L254.182,53.9Zm-.644,1.808,1.322-.167.429.637-.474,1.5Zm3.524-.621-.638,1.159-.841-.955Zm-4,19.789-2-.209-.729-.909L248,72.875l-.723-1.6-1.322-.028-.322,2.824,1.869,2.253,2.191.277Zm-6.314,5.009.887.175,1.576-1.31-.034-1.073Zm6.918,2.027v1.259l1.316-.4-.446-.813,1.062-.271-.9-2.818-.666,1.739h-2.18Zm-3.88-6.286.938.921-.3.565-.757-.74Zm.938,2.253.666.452.729-1.1-.971-.119Zm2.485-1.152.915,1.18h1l-.954-1.536Zm0,.994.514.9-.412.548-.723-1.09Zm-1.09.909.469.706-.469.565-.537-.655Zm1.779,18.5.616.847,1.728-.209v-.638ZM236.957,87.96l.085,2.44,1.389,2.428h4.416l2.186-2.79v-5.06l-1.576.164-1.276,2.412-4.275.954-.921-.559Zm-3.14,6.37V92.467l-7.28-7.551-2.491-.954,8.432,11.481Zm8.505,3.321.136.633-9.1-1.542,1.367-1.1,2.27.864,2.05-.452Zm5.817,0h-1.406l.271.909h1.344l.565-.457Zm-2.457,1.474.412.5h.977l-.339-.729Zm5.162-1.2-1.406,1.57,1.067.136.954-.858Zm-4.682-2.773,1.045-.322-.316-1.841.616-.683.52,1.367,1.254.435v-.983l-.706-1.559,1.338-1.124-2.135.09-.441-.61.847-.932,1.57.542.774-.068,1.158-1.367-1.017-.023-.661.435-2.186-.531-1.446,1.3.1,2.067-.841,1.118Zm7.844-2.931-.243.853,2.366-.243v-.61Zm.548-5.506-.791.779-.3,1.943,1.09.265-.243-1.723.633-.791Zm5.36,5.168L259.6,90.2l-2.592.367Zm-.175,1.4,3.614,1.508L264,96.635l-1.2.734,3.095,1.073V92.348l-2.513-1.31-2.344,1.9-2.479-.977-.277,1.367Zm-10.764-40.2-2.44-2-1.079,1,1.457,3.154,1.762-.121Zm-2.44-2-1.079-.883,1.395-.182-.243-2.789-3.586,2.47,1.05,1.994,1.384.387Zm-3.123,32.18-1.943,2.615-4.484,2.073.921.559,4.275-.954,1.276-2.412,1.576-.164V83.128Zm-14.864,0,.779,2.53,3.208,2.733.248-.971-3.027-4.473ZM267.019,98.84l2.152-1.977,2.79,2.722,2.547.52-3.151-3.151.152-1.666L265.9,92.351v6.094Zm5.907-3.264,1.135.678,1.96-1.1V94.011Zm1.581-3.2,2.287,1.638.915-.311-2.321-1.384ZM226.9,68.179l-2.457-4.094.633-1.728-1.423-.61-1.909,1.372-.9,6.207,1.418,1.186.542,2.835,1,.3.717-.9,1.333,1.5L226.6,77l-.175,2.835,1.146-2.248L225.51,70.15l1.395-1.011Zm4.123,3.49,1.649,2.242-1.542,1.547h3.456v-.881L231.225,71l-.745-2.3-2.338-1.141-1.237.627v.96l1.209.706V71.67Zm-2.914,0V69.845l-1.209-.706L225.51,70.15l2.061,7.432-1.146,2.248-.068,1.118,2,1.694.192.621,1.209-.181-1.943-2.863.452-4.428,2.186,2.163V76.142l2.225-2.231-1.649-2.242Zm2.338,4.473v1.813l1.09,1.084,1.226-.169,1.824-1.367V75.459h-3.456ZM231.225,71l3.366,3.581V77.5l-1.824,1.367.045,1.954,3.49-2.3-.119-3.428-3.643-3.846.181-2.107,1.3-.734L231.208,66l-3.067,1.553,2.338,1.141Zm-14.554-7.455-.774.361,1.1,3.462.706-.683,3.151,2.643.2-1.412L219.4,66.367l-.271-1.852-1.322.542Zm1.135-.237-1.909-.474.265-1.2-.548-.19-1.169,1.861-6.421-2.432.017-2.051-1.6-.556-.181-3.639-1.4-.638h-1.293l-1.92,1.364-.051,1.162,1.163.659.553,2.271-2.524,2.323H199.17v1.717l1.209.457v1.48l-2.18.582.186.22,1.8.57-.841.864.8,1.034,1.429.169.254-1.186.565.006,4.591,13.2,2.914-1.79.452-5.309,6.647-6.421L215.9,63.9l.774-.361,1.135,1.514,1.322-.542.271,1.852,1.655,1.547.695-4.795,1.909-1.372-3.213-1.388-2.18,2Zm-9.765-4.483-.017,2.051,6.421,2.432,1.169-1.861Zm8.121,2.811-.265,1.2,1.909.474.457-.949ZM179.787,46.289l1.361,1.131,1.734-.479,1.536,1.282-.265-3.329,2.366-.546,3.117,2.138,2.609-.5,1.909,2.517L196,48.421l1.8-1.48,4.253-.185,2.722,1.261-.706-3.282,4.241-3.232-2.445-1.43-14.254-5.027-5.619,1.267v2.54h-9.962v3.282l1.333,1.667,2.852-1.152,1.7,1.152-2.061,1ZM190.7,54.128l-.954-1.546L186.016,51.4l-2.2.734-.04.981-2.807,0-1.547-2.731-3.7.365V51.84l4.49,7.619,1.333.128,3.095,3.229,5.7,1.7h1.581l1.146-1.971-1.271-1.593-1.819-5.275Zm-6.28-5.9-1.536-1.282-1.734.479,2.767,2.292-.1,2.421,2.2-.734,3.733,1.183.954,1.546,3.547-1.819-5.845-4.678h-2.479ZM199.17,61.769h1.615l2.524-2.323-.553-2.271-1.163-.659.051-1.162,1.92-1.364h1.293l-2.694-1.231-2.869.414-.909,3.941-3.315,3.065-3.558-.036.282.806,1.271,1.593-1.146,1.971h4.97l1.31,1.491,2.18-.582v-1.48l-1.209-.457Zm-9.533-15.282-3.117-2.138-2.366.546.265,3.329,1.508-.594h2.479l5.845,4.678,1.915.512-.87-2.558,2.716-.779.152-1.157-4.01.177-1.909-2.517Zm1.062,7.641-.723,1.547,1.536,4.469,3.558.036,3.315-3.065.909-3.941-.587-1.66-2.541,1.308-1.915-.512Zm7.765-3.38-2.282-.74-.887.255.87,2.558,2.541-1.308.587,1.66,2.869-.414-.424-.193-.836-2.051Zm-.666-3.805-1.8,1.48,2.169-.1-.152,1.157-1.83.524,2.282.74,2.44-.232-.378-.92,4.247-1.577-2.722-1.261Zm-21.771,2.13,1.627,1.484,1.768-.175-1.231-2.169-1.333-.33Zm-3.5-.614,2.411.614h1.084l.83-1.189-3.078-1.4-1.248.27Zm3.191,2.289,1.931-.191-1.627-1.484h-1.084Zm-18.383-18.5-.638.151.164.123-.181.819-1.79-.819.006,1.063,2.44.622,1.756.8.678-.579-.243-1.726-.892.271ZM154.9,34.8l1.361.454.373.77.294.822,2.163-1.834-1.756-.8-2.44-.622Zm6.913-.368h-2.044l-2.841,2.414.452,1.245,4.072.649L164,38.189l-1.514-.616.909-.58Zm-5.67-3.156-.215.546.768.578.638-.151,1.3.728.892-.271-.277-1.966-.508.477Zm5.309,7.466-4.072-.649.254.707L156.18,40.62v1.028h5.506l.531,1.006-.954,1.5.836.35.226-.694h3.264l-.723.75,1.005.569,1.355-.106-1.288-1.645,3.389-.72.864-1.941L164,38.191Zm-7.754-15.9L148,27.026v3.721l-.785,1.229,2.146,2.471,3.5-3.1-1.638-2.033,3.688-4.031h.729l-1.005-2.441Zm-10.058,9.414,3.338-.546.232.266L148,30.747V27.026l5.71-4.184h3.157V21.8l-3.236.165-11.1,7.681Zm13.221-9.414h-2.225l1,2.441h.587L154.452,29.3l2.073,1.046h3.157l1.773-2.047-2.942-6.585-1.649.084Zm95.67,18.3h1.09L249.777,37.2l-1.09-.031,3.089,3.821,1.514,2.82h1.124Zm-96.291-5.879-1.361-.453.006.905,1.728.319Zm81.381-13.628-1.045-1.419-6.461-1.056L228.3,20.8h-5.23l-2.18-1.637H209.064l-.729-2.607H197.419l-9.623,4.3,2.107,2.608-1.818,1.88-1.643-5.371-2.9-.23,1.395,3.176-11.222.3-10.488,4.305-1.384-2.636,3.987.15,1.943-.97-7.641-2.436-1.627.083,2.942,6.585-1.773,2.047-.429.4.277,1.966.243,1.726h2.044L163.381,37l-.909.58,1.514.616,6.2,2.523-.864,1.941.407.97-1,.273L168.9,45.5l3.62,1.268,1.248-.27,3.078,1.4,1.333.33-.83-1.455V43.81l-1.333-1.667V38.861h9.962V36.32l5.619-1.267,14.254,5.027,2.445,1.429,3.01-2.293,4.032,1.228,1.09-2.456,9.917,2.456H231.2l1.819-.364-.971-3.426h4.247l4.366,4.276,5.941,1.516v4.791l2.6-.457,1.4-2.09V40.809l-4-4.548-3.88-.06.666-4.79,8,.06.87-2.719,3.377,1.278.011-1.253.836.086,1.457,1.394-1.406.957-.169,2.863,5.7,5.4V34.26l-3.213-3.093,7.613-2.41.1-.777-3.829-1.042,1.491-1.162,3.422.707,2.321.046-1.864-2-11.95-2.367Zm-85.335,20.3-1.406,1.153,2.044.76,2.18-.376,1.728-1.817h-.683v-.43Zm-1.045-.988,1.045.988,3.863-.711v-.6l-3.5-.425-.147-.058Zm-7.376,2.811,1.254.09,1.135-.262-.407-1.228h-1.067l-.695.32Zm4.8-2.811h2.575l1.259-.8-2.462-.97-2.2.682Zm-17.3,11.837.508.038.587-4.934-1.909-.319-.1,3.608Zm29.87-8.629.954-1.5-.531-1.006h-1.632Zm-4.625-8.121-1.728-.319-1.819.06-.412-.378-2.609.636-.232,0,.232,3.141,2.468.97.141.058,3.5.425,1.457-1.817-.254-.707-.452-1.245Zm.226,5.619-1.728,1.817,1.547,2.57,3.863-.44,1.1.3.452-1.4-.836-.35-1.209-2.5ZM149.8,36.026l-3.349-.038-.152-.6h-1.175l.237.573L143.6,37.021l-.158,3.041,1.067.557-.424,2.051.695-.32h2.485l.215-.063,1.8-.529-.616-.819-.83-1.092,2.2-.682Zm-4.676-.634H146.3l-.062-.252.384-2.158-1.056-.015-.751,1.693Zm3.134-.756-.661-.655-.587.241-.181.928,1.1-.011Zm1.022,7.122-2.016.591h-1.418l.407,1.228,2.152-.5h2.474l1.034-.849.373-.3-1.045-.988h-2.575Zm1.231,9.821H148.33v.546l.819.561,1.367.212ZM144.784,48.5v2.244h1.045v-1.94Zm-.915-4.754-.2.964,1.265.577H146.4l4.518,4.508.232,1.918.83-.485.26-1.379,1.028-.206-5.512-4.77,1.564-.094-.915-1.7-3.287.76Zm1.44,3.208v.925l.52.2.232-1.121Zm-10.425-5.67v.667l1.875,1.013.248,3.322,2.779,1.777.858-1.11,4.066.029.119-1.7h.107l-1.265-.577.841-4.1-3.7-1.93-4.337,2.6Zm6.963-3.217-1.034.617,2.073,1.081.593-.32.023-.5Zm1.655.878.1-1.93-1.756,1.052Zm-.616.82.559.291.028-.611ZM136.1,35.041l.023,1.394-.954.523.841,1.225L134.3,39.8l2.253-.409,2.293-.364.147-.841h.469l.1-.939-1.485-.313-1.858-4.27L134.8,32.62v2.3Zm-1.8,1.008v-.911l-1.66-.112L133.6,36.3Zm-3.343.211v2.487l.954-.006V37.89l1.819.25L133.6,36.3l-.954-1.274Zm.915,16.559,3.982.3,3.931-5.047-2.779-1.777-6.427.046-.028,1.227,1.909.319Zm8.821-2.123V49.626l-1.231,1.068Zm14.548-1.242,2.524-.817-.582-1.357-2.078.407Zm-1.6-5.738.463,2.575,1,1.394,2.078-.407-.531-1.245-1.547-2.57Zm-4.32,1.067.232-.014,1.186-.621.536-.921-.4-.148h-2.474Zm12.605,4.995-1.881-.015,1.547,3.11,7.11.393,6.986-1.425V50.747l-.779-1.675-2.411-.614-9.736.319Zm-1.886-.7h1.734l-.7-1.508-1.05.339Zm-7.765-2.016.627.155,1.2-.921-.339-1.894-2.57.348Zm2.027,2.7.8.926,1.547.433-.943.4,1.248,1.569.785-1.242-.875-1.911,1.739-.856h1.434l-.017-1.168Zm-1.378-5.913-1.649-.612-.536.921-1.186.621.412-.025,1.915,2.214.4.1L151.2,44.745l2.57-.348-.124-.681Zm.729,3.558.9-.481-.452-.626-1.2.921Zm0,0,.508,2.192.141.165.937-.3-.136-1.767-.548-.768Zm4.111,1.237,3.309-1.07.542-1.668-1.1-.3-3.863.44Zm24.7,15.892.768.508.5-.52-.881-1.242ZM167.142,54.063l-2.027.751,1.451.364Zm1.3,2.594V60.3l.762.091,1.135-.531.35-2.047.887-.375.045-.019-.26-1.087-1.824,1.087Zm13.769,7.709-2-3.276h-.875l-.627-.813L177,60.272l-5.416-2.831-.892.375-.344,2.047-1.141.531-.757-.091,7.065,12.278.141.457.734-1.259,2.508.316-.232.954,3.552-1.864,5-1.338v-2.6l-2.6-.367-.791-1.451Zm-4.3-4.091.8,0,.621.813h.875l-1.062-1.728h-1Zm-5.072-4.824-1.48.883.271,1.136,5.36,2.8.921,0,.232-.913,1.971-.012-4.428-7.506-2.033.415ZM185.717,65.8l-1.9-.373.791,1.451,1.468.209,2.09-2.123-.954-.847Zm.361,1.288,1.135.158v2.6l-2.513.672v1.514l1.4.949,4.631-5.738-2.564-2.282ZM169.271,55.129l-.825,1.525,1.1.764,3.3-1.97.813-3.193-4.953,1.01-.333,1.553Zm12.944,16.056-3.552,1.864.232-.954-2.508-.316-.734,1.259,1.254,4.089,9.194-4.145-1.4-.949V70.519ZM168.447,56.654l.825-1.525-.9-.311-.328,1.552Zm-.023,3.7.023-.054V56.654l-.4-.285-.633,2.335Zm7.556,52.037.96,2.27,2.3.1,3.914-12.555h-1.395l-4.546,4.721-.457,3.276ZM150.714,81.553l-.666-1.971h1.333l-1.643-3.49v1.931l-2.361,4.891-2.061.119-.288,2.011h.892l-.045,2.056h5.687l.254-.729H151.8l-1.7-2.395ZM147.438,88.6h-1.6l-.051,2.445,2.05,2.739V91.436h2.632L149.127,87.1h-1.689Zm0,0V87.1h-1.559l-.04,1.5ZM142.1,83.433l.361,1.61h2.564l.288-2.011,2.061-.119,2.361-4.891V76.092H140.9l-1.434,6.958ZM129.061,82.1l.649.729v3.033l4.812-1.389v-4.45l-4.7-.926v2.338Zm.649,3.761V82.829l-1.739-1.96-1.542,1.451Zm28.966,14.153-1.66-.819V96.169h-1.875l-.378,1.333-1.869.062-.486-1.677-2.971.023v6.625l-1.694,2.79.147,1.819h10.476l-1.711-2.123v-2.366h2.09Zm-20.89-16.485-.779-4.767h-2.485v5.71Zm11.34,3.569,1.344,4.337h-2.632V93.78l1.034,1.378,2.508-1.146,2.637-4.377.418-3.264h-2.62l-.254.729Zm24.51-12.024,1.553,2.457.593-.5-3.936-6.76-2.033,4.8Zm-47.2,7.246,1.536-1.451L126.4,79.1l-1.53,1.536ZM175.6,79.136l.988-.712-.808-1.389-1.18.988ZM168.294,101.2v1.457l1.276.853v1.819l-1.214,1.062v-2.129l-1.214-.994-.034.023-2.293,1.6,2.293,1.5v2.1l-1.434,3.355v3.716l1.039-.017.068-.5,2.152-1.5-.158-4.524,5.049-4.14-.5-4.721Zm8.3-22.771-.988.712,1.005,1.13,4,1.418L174.36,86.89v4.529l9.8-11.4-.4-2-6.811,1.011Zm-24.968,39.239h3.761v-9.618h4.992l-.649-.9H147.89Zm18.626-32.92-1.717.243.491,2.112-.243,1.79-.768,1.355,4.7,3.1,1.649-1.926V86.89l1.819-1.519h-5.331Zm-2.236,5.5-.294.514H166.03l.435-.745H165.7l-1.728,4.281,3.14,4.422h1.186V101.2l5.026-1.045-.61-6.805ZM129.547,63.418h-2.79v3.2l-1.028,1.559h-3.445l-.124,3.6,4.236,3.044v-1.09h5.094L131,65.045h2.683l-4.14-3.055ZM165,91.752l.7-1.739h-1.491l-.474,2Zm-1.028,2.541L165,91.752l-1.265.265-.344,1.451ZM123.233,78.87l1.632,1.762L126.4,79.1l1.576,1.773,1.09,1.231.762-.666V79.1l-.367-1.666H124.6Zm8.257-5.139H126.4v1.09l1.152,2.609h1.909l.367,1.666,2.349.463V77.2l9.019-3.654V70.574l-7.506-5.529H131Zm31.35,26.922,1.819.729-.633,1.271-5.348-2.637.068,2.637h-2.09v2.366l1.711,2.123h3.2l5.54-3.857V98.716l-.695-.977-3.027.457Zm-7.455,13.582,1.514,1.745,6.178-4.14-2.7-3.8h-4.992ZM132.173,79.559l2.349.463V78.763h2.485l2.886-1.062-2.756-2.508L132.173,77.2Zm34.936,19.157v4.569l.034-.023,1.214.994v2.129l1.214-1.062V103.5l-1.276-.853V98.716Zm8.082-21.184-1.553-2.457h-3.823l-2.705,6.387,3.739,3.908h5.331l4.433-3.688-4-1.418-2-2.242ZM164.206,90.013h2.259l.644-1.124h1.672l.243-1.79-.491-2.112-3.236.452ZM141.192,70.574V73.55l-4.055,1.643L139.9,77.7l.723-.265.277-1.344h8.838L151.73,72l-.785-5.382h-3.931Zm-18.9-2.395h3.439l1.034-1.559v-3.2h2.79V61.476H126.48l-4.145,5.4Zm-.254,7.1,2.784.813h-2.812l-.051,1.338h5.591L126.4,74.821l-4.236-3.044Zm2.784.813-2.784-.813-.028.813ZM151.724,72l-1.988,4.089,1.643,3.49h-1.333l.666,1.971,6.6-3.117V75.041l1.468-1.446.147-3.3L153.2,66.621h-2.253Zm.017-13.373-1.2-1.458-2.581-.62-2.4,2.582,1.559,7.489H153.2l5.727,3.677.559-12.673-3.332-.452-1.378,2.062Zm-22.675,2.845h.486v-.413l6.913-3.773V54.581l-5.094.531-4.891,6.365Zm7.4-6.89v2.707l-6.913,3.773v.926l11.64,8.584,5.823-3.953h.1l-2.841-13.65-3.343-.1Zm7.811-1.615,1.282,6.167,2.4-2.581-.943-.226.119-3.276Zm15.452,54.171,3.349,4.7h2.6l1.434-3.355v-2.1l-2.293-1.5-3.247,2.259Zm1.536,12.8H162.6l.791-.825v-1.056H162.3l-1.033.666Zm4.411-4.727h-1.017v.932l1.017.61ZM168.407,60.4l.017-.047L167.413,58.7l-7.929-1.078-.424,9.612h8.692l1.751-1-3.6-6.19,1.971,1.607Zm1.1,5.845-1.751,1h-8.7l-.277,6.354-1.468,1.446v3.394l5.2,5.986,2.784,1.017,4.947-.695-3.134-3.281,2.705-6.387,2.033-4.8Zm-6.116,27.227,1.909-8.031-2.784-1.017-7.856.22-.638,4.992-2.637,4.377-2.508,1.146.565.751,2.971-.023.486,1.677,1.869-.062.378-1.333h1.875V99.2l7.009,3.456.633-1.271-1.819-.729.548-2.457,3.027-.457ZM150.1,83.975l1.7,2.395h2.632l.22-1.728,7.856-.22-5.2-5.986-6.6,3.117Zm-9.482-6.54-2.462.9.808,4.851.5-.141Zm-2.462.9-1.152.424.779,4.767,1.18-.339Zm-14.926.531,1.372-1.44h-2.643l-.006.062ZM46.256,22.225,44.2,21.375,33.4,21.436l-4.366,1.759v1.941l-4.911-.06-.932,1.3,4.145-.149-5.336,2-2.578,3.493,2.214-.037-4.245,2.789,1.552.121,8.127-3.88,9.381-.328,2.85,2.85,1.076-1.159-.94-.971H38.379l-1.036-1.187,8.917-7.7ZM39.2,40.274l-1.486-1.213-.637.546,1.036,1.354H39.2ZM96.13,42.152,95.017,40.38l-1.005-.24V38.869l-3.236,3.283ZM94.436,21.64l-6.517-2.662-.971-.01-2.265,1.86.757-1.872-1.1-.008-2.637,2.8,6.41-.348,3.914,3.5L89.4,24.861l-1.327,1.087H85.083V26.8h3.033l2.57,2.125.7-.306-.61-1.35,1.768.841.576-.25V25.225l2.033.723,1.169-.78-.661-1.234-1.175-.428ZM72.489,45.433H74.37l1.3-.893h4.213l1.819-1.577h1.638l-.593,1.866,2.908-.5-1.909.909.181.789L89.116,44.2l-2.53-.12-1.18-1.063,1.169-1.813L86,40.663l-3.665,1.663v-.955l3.507-1.683,5.619-.242L95.689,37.2l.023-1.026-3.078-.533-.373-5.032-4.027,1.585.028-2.367L86.32,28.172H83.683L76.55,38.552l-1.728.006.034-3.414-6.145-3.335,6.145-4.548,3.485-.636-.729-1.078,5.365-.591,2.186-2.274-2.05-.227-2.818,1.864.316-1.591-1.316-.137-.311-1.923L76.7,21.681,77.3,22.91l-3.05,1.455-5.32-1-2.812,1.319-6.828-2.728-13.052.273-8.917,7.7,1.036,1.187h1.061l.94.971-1.076,1.159-1.092,5,1.956,1.774v.955H62.064l2.575,1.175L69,41.216l.548,1.933.881.651,1.48-.1Zm7.867-19.484-1.672,1.359,3.3.35.35-.855Zm-6.45-3.458.616.795,1.559-.795-.463-.738Zm1.18-2.669.994,1.008,2.135-.713.559-1.492Zm4.072-.6.271.955,2.909-.773-.587-.779Zm7.415-1.978-1.593-.66L83.434,17.9l6.274.494,1.638-1.153Zm15.277-3.525,3.276-1.848-13.006.965v.7l4.388-.091-.616.819-4.546.09.593,1.046-1.96-.319.774,1H87.388l.5.5h3.682l.593.5,5.365-2.5Zm-15.915.759,2.423.458,1.389-.889L88.743,13.3ZM60.347,20.832,66.04,18.9l-1.31-.607-5.382,1.371Zm6.427-1.583-3.067,1.043,1.808.761-2.82.718,3.5,1.364,2.412-1.046,2.683.637,2.011-.461-1.965-.908L72.851,19.4H71.337l-.909,1.176L70.061,19.4l-1.6.622ZM62.331,67.157h2.794l2.253,1.5-.858.954h3.908l-4.671-3.366H63.286Zm3.912,4.185.587.5h1.683v-.593l-.587-.593H66.243Zm10.363-.463-.345.57h.943l.344-.57Zm-20.777,2.44H54.238l-.756,1.344L55.735,75.8l1.527-2.756-.3-1.468H55.6ZM57.6,75.549l-.274.966.41.186L61.5,73.55l-4.536.045-.748,1.338Zm-.274.966.274-.966-1.384-.616-.483.864Zm1.411-6.263-1.774,1.322.3,1.468Zm.431,8.381,2.454.26L61.5,73.55,57.739,76.7Zm3.953,14.876,2.008.96,3.581-4.394-3.648-2.084-1.731,2.18ZM70.5,77.955l-.971-.006L67.5,80.689l-1.034.068.294.994-.542.768.418,1.389-.4,2.592-1.18,1.491L73.4,92.752V87.409l1.937-.13V83.038l-3.18-.328-1.384-1.53Zm13.238,64.834,1.242,1.141,3.829.141-4.134-2.157Zm5.885-27.532-1.672,1.017H85.7v-2l-4.591-3.106-.26.474H77.023L76,121.187l2.163,9.46,1.954,3.479.09,2.609,2.9,4.445,1.056.107-.548-11.369,6.156-2.666-2.79-3.886v-4.275L89.7,116.3Zm.678,9.33,1.333-2.31-4.654-3.185v4.275ZM77.339,79.469,75.278,78,70.5,77.955l.271,3.225,1.384,1.53,3.18.328v4.241l.508-.034.644,1.44,2.067-.666-.169-2.236,2.767-1.017.819-4.044-.932-.892Zm-18.174-.836L60.8,80.841l.59.209.828-1.073-.58-.322-.018-.762Zm25.685,4.834-2.886-2.745-.819,4.044,1.2-.441-.164,3.451,2.762-.311L84,85.049Zm-7.139,16.655-2.818.8v6.444l2.123,4.281h3.829l1.491-2.733,2.886-.017-.068-2.157-4.913-4.015Zm9.714-12.927,1.852-.209.548-1.553-.729-1.6L87.55,83.7Zm-2.2,21.7-2.886.017-1.231,2.259,4.591,3.106v2h2.248l1.672-1.017-.113-1.581-4.2-2.242Zm-.277-21.427,2.479-.271.124-3.49-2.7-.237L84,85.049Zm11.606,3.462-2.1-.909-2.1,1.231.683-1.841-1.395-.6-1.982,1.525,1.44-2.123-1.271-2.773-.548,1.553-7.093.791.164-3.451-1.2.44-2.767,1.017.169,2.236-2.067.666-.644-1.44-2.445.164v6.308l-2.485.3-1.1,3.575,4.157,3.581,3.744-1.056,2.53,2.6,4.913,4.015.147,4.7,4.2,2.242.186,2.626-2.716,2.79,4.654,3.185,2.711-4.727.638-4.094,6.585-2.914,1.226-9.1,2.841-3.716V95.474l-4.648-3.027-4.546-.277ZM64.011,79.9l-.771.644-1.023-.565-.828,1.073,2.436.87.59-.881,1.395.136.407,1.344.542-.768-.254-.932-.3-1.113Zm6.9,14.125,2.485-.3v-.966L68.7,90.075l-3.581,4.394-2.008-.96-.064,1.028,6.1,10.386,5.269,3.53.474-1.09v-6.444l-.926.26L69.812,97.6Zm7.246,36.624-2.163-9.46,1.028-9.544-2.123-4.281-.474,1.09.887,21.6,2.332,1.886.107,3.874,4.044,5.23,1.31.136-2.9-4.445-.09-2.609ZM75.329,70.105l-2.75-.3v1.519l.921-.683h1.468Zm-2.75.841V69.8H70.862l.559.791h-1v.356Zm180.552,9.787" transform="translate(-17.394 -11.871)" fill="#fff" stroke="#313073" stroke-linejoin="bevel" stroke-width="0.25"/>
        <path id="Path_28" data-name="Path 28" d="M445.057,198.455l-.565,1.807,4.123-2.937-1.186-1.581v-1.807l-.678.282v2.541Zm-10.843,5.93,8.584-4.349v1.13l-6.608,4.349ZM399.03,182.077l7.229-3.389,5.365-5.93,2.937,1.3,1.3-2.711,4.913-.113-1.242,2.259,4.066,3.5,2.711-2.711V170.5l1.242.4,1.412,6.777,4.405,6.212-.452,4.687-8.02,8.3-6.946-.4-.847-4.687-2.372,1.017-2.259-1.977-13.724,2.993-.847-1.017,1.13-2.711Z" transform="translate(-183.007 -80.913)" fill="#fff" stroke="#313073" stroke-linejoin="bevel" stroke-width="0.25"/>
      </g>
      <g id="a" transform="translate(17.394 11.871)">
        <path id="Path_29" data-name="Path 29" d="M163.387,119.134l-.791.825h-1.333v-1.214l1.033-.666h1.09Zm2.287-3.558v1.2l-1.017-.61v-.932h1.017V111.86h-2.6L156.9,116l-1.519-1.745v3.428h-3.756l2.18,5.969h7.155l5.506-6.37.248-1.722ZM68.762,48.145l1.423-.971H71.9l-1.418.971ZM81.734,42.99l-1.819,1.577H75.7l-1.3.893H75.4l-1.4.956H73L74.4,45.46h-2.75l-1.192.926-1.214.121.243-2.092h-.937l-1.1.728-2.033,3h-1.2l2.3-3.73,2.716-.581-.152-.51-1.79-.061-.847-.516-1.062.516H64.148l.508-1.1-2.57-1.176H40.168L32.95,48.6v5.851l2.635,2.636L44.8,58.274l1.229,1.865,2.592-.091,2.139,4.2,3.986-5,9.477.03.627,4.737,1.5.04.04-5.9L81.733,45.042l1.045-.181.593-1.868H81.733Zm9.07-.81h5.354l-1.113-1.772-1.005-.24V38.9ZM51.113,70.847,49.048,66.4l1.715-2.152-2.139-4.2-2.592.091L44.8,58.269l-9.217-1.185.018.018L36,61.252l2.835,5.365,1.162-.9-2.236-4.767V58.269h1.319l.051,2.5,4.236,9.951,6.907,2.88,1.724-.457,1.517,1.547.756-1.344h1.591L55.63,71.6h1.364l1.774-1.322.075-1.926-1.94-.034-1.542,2.53Zm76.468-43.142,2.564-1.248v-.351l-1.271-1.289-1.779.591-2.135-.045-.452.616-1.214-.028v1.141ZM150.4,54.785l.006-1.211-1.372-.036-.011.892Zm-52-38.72v1.276l6.37.091,1.632,2.816V22.8l-3.055,1.735.09,3.456,1.92,1.941h2.27l3.468-3.665,4.9-1.444,1.835-1.406,3.7-.229,2.592-.765,4.885-7.765,3.01-.616,1.062-1.067L124.4,12.1l-7.5.873H107.82l-5.235,1.819ZM246.14,65.227l-.74-.774-1.214,1.728,1.214,1.135ZM234.484,43.806l.243-1.364-2.547-.409-.971-1.592h-4.851l-9.917-2.456-1.09,2.456-4.032-1.228-3.01,2.293,9.8,5.727,11.34.121,1.367-2.781Zm2.152,25.967-1.457.322v.858l.593.717.864-1.079ZM231.208,40.44l.971,1.592,2.547.409-.243,1.364-3.66.766-1.372,2.781-11.34-.121-9.8-5.727-4.241,3.233.706,3.282L200.525,49.6l1.214,2.971,4.518,2.061.181,3.639,11.826,4.09,2.18-2,4.642,2-.638,1.728,2.457,4.094,4.3-2.18,2.812,2.406,1.192-.678.045,1.158,7.048-2.519,2.3-5.157L240.5,54.445l2.112-2.3h-2.428l-.779.5-1.525-2.5,1.943-1.7,1.333,2.544,1.869-1.286,3.586-2.47V42.44l-5.941-1.516L236.3,36.648h-4.241l.966,3.426Zm24.5,7.206,1.66-.023.706-1.205-3.688-1.546.073,3.047.729.432Zm-4.586,7.043-.271.937,3.654-.539.282,1.411.83-.352.09-1.11,2.451-.63-.13-3.2-1.113-1.942-1.107-.321.633,2.911L254.182,53.9Zm-.644,1.808,1.322-.167.429.637-.474,1.5Zm3.524-.621-.638,1.159-.841-.955Zm-4,19.789-2-.209-.729-.909L248,72.875l-.723-1.6-1.322-.028-.322,2.824,1.869,2.253,2.191.277Zm-6.314,5.009.887.175,1.576-1.31-.034-1.073Zm6.918,2.027v1.259l1.316-.4-.446-.813,1.062-.271-.9-2.818-.666,1.739h-2.18Zm-3.88-6.286.938.921-.3.565-.757-.74Zm.938,2.253.666.452.729-1.1-.971-.119Zm2.485-1.152.915,1.18h1l-.954-1.536Zm0,.994.514.9-.412.548-.723-1.09Zm-1.09.909.469.706-.469.565-.537-.655Zm1.779,18.5.616.847,1.728-.209v-.638ZM236.957,87.96l.085,2.44,1.389,2.428h4.416l2.186-2.79v-5.06l-1.576.164-1.276,2.412-4.275.954-.921-.559Zm-3.14,6.37V92.467l-7.28-7.551-2.491-.954,8.432,11.481Zm8.505,3.321.136.633-9.1-1.542,1.367-1.1,2.27.864,2.05-.452Zm5.817,0h-1.406l.271.909h1.344l.565-.457Zm-2.457,1.474.412.5h.977l-.339-.729Zm5.162-1.2-1.406,1.57,1.067.136.954-.858Zm-4.682-2.773,1.045-.322-.316-1.841.616-.683.52,1.367,1.254.435v-.983l-.706-1.559,1.338-1.124-2.135.09-.441-.61.847-.932,1.57.542.774-.068,1.158-1.367-1.017-.023-.661.435-2.186-.531-1.446,1.3.1,2.067-.841,1.118Zm7.844-2.931-.243.853,2.366-.243v-.61Zm.548-5.506-.791.779-.3,1.943,1.09.265-.243-1.723.633-.791Zm5.36,5.168L259.6,90.2l-2.592.367Zm-.175,1.4,3.614,1.508L264,96.635l-1.2.734,3.095,1.073V92.348l-2.513-1.31-2.344,1.9-2.479-.977-.277,1.367Zm-10.764-40.2-2.44-2-1.079,1,1.457,3.154,1.762-.121Zm-2.44-2-1.079-.883,1.395-.182-.243-2.789-3.586,2.47,1.05,1.994,1.384.387Zm-3.123,32.18-1.943,2.615-4.484,2.073.921.559,4.275-.954,1.276-2.412,1.576-.164V83.128Zm-14.864,0,.779,2.53,3.208,2.733.248-.971-3.027-4.473ZM267.019,98.84l2.152-1.977,2.79,2.722,2.547.52-3.151-3.151.152-1.666L265.9,92.351v6.094Zm5.907-3.264,1.135.678,1.96-1.1V94.011Zm1.581-3.2,2.287,1.638.915-.311-2.321-1.384ZM226.9,68.179l-2.457-4.094.633-1.728-1.423-.61-1.909,1.372-.9,6.207,1.418,1.186.542,2.835,1,.3.717-.9,1.333,1.5L226.6,77l-.175,2.835,1.146-2.248L225.51,70.15l1.395-1.011Zm4.123,3.49,1.649,2.242-1.542,1.547h3.456v-.881L231.225,71l-.745-2.3-2.338-1.141-1.237.627v.96l1.209.706V71.67Zm-2.914,0V69.845l-1.209-.706L225.51,70.15l2.061,7.432-1.146,2.248-.068,1.118,2,1.694.192.621,1.209-.181-1.943-2.863.452-4.428,2.186,2.163V76.142l2.225-2.231-1.649-2.242Zm2.338,4.473v1.813l1.09,1.084,1.226-.169,1.824-1.367V75.459h-3.456ZM231.225,71l3.366,3.581V77.5l-1.824,1.367.045,1.954,3.49-2.3-.119-3.428-3.643-3.846.181-2.107,1.3-.734L231.208,66l-3.067,1.553,2.338,1.141Zm-14.554-7.455-.774.361,1.1,3.462.706-.683,3.151,2.643.2-1.412L219.4,66.367l-.271-1.852-1.322.542Zm1.135-.237-1.909-.474.265-1.2-.548-.19-1.169,1.861-6.421-2.432.017-2.051-1.6-.556-.181-3.639-1.4-.638h-1.293l-1.92,1.364-.051,1.162,1.163.659.553,2.271-2.524,2.323H199.17v1.717l1.209.457v1.48l-2.18.582.186.22,1.8.57-.841.864.8,1.034,1.429.169.254-1.186.565.006,4.591,13.2,2.914-1.79.452-5.309,6.647-6.421L215.9,63.9l.774-.361,1.135,1.514,1.322-.542.271,1.852,1.655,1.547.695-4.795,1.909-1.372-3.213-1.388-2.18,2Zm-9.765-4.483-.017,2.051,6.421,2.432,1.169-1.861Zm8.121,2.811-.265,1.2,1.909.474.457-.949ZM179.787,46.289l1.361,1.131,1.734-.479,1.536,1.282-.265-3.329,2.366-.546,3.117,2.138,2.609-.5,1.909,2.517L196,48.421l1.8-1.48,4.253-.185,2.722,1.261-.706-3.282,4.241-3.232-2.445-1.43-14.254-5.027-5.619,1.267v2.54h-9.962v3.282l1.333,1.667,2.852-1.152,1.7,1.152-2.061,1ZM190.7,54.128l-.954-1.546L186.016,51.4l-2.2.734-.04.981-2.807,0-1.547-2.731-3.7.365V51.84l4.49,7.619,1.333.128,3.095,3.229,5.7,1.7h1.581l1.146-1.971-1.271-1.593-1.819-5.275Zm-6.28-5.9-1.536-1.282-1.734.479,2.767,2.292-.1,2.421,2.2-.734,3.733,1.183.954,1.546,3.547-1.819-5.845-4.678h-2.479ZM199.17,61.769h1.615l2.524-2.323-.553-2.271-1.163-.659.051-1.162,1.92-1.364h1.293l-2.694-1.231-2.869.414-.909,3.941-3.315,3.065-3.558-.036.282.806,1.271,1.593-1.146,1.971h4.97l1.31,1.491,2.18-.582v-1.48l-1.209-.457Zm-9.533-15.282-3.117-2.138-2.366.546.265,3.329,1.508-.594h2.479l5.845,4.678,1.915.512-.87-2.558,2.716-.779.152-1.157-4.01.177-1.909-2.517Zm1.062,7.641-.723,1.547,1.536,4.469,3.558.036,3.315-3.065.909-3.941-.587-1.66-2.541,1.308-1.915-.512Zm7.765-3.38-2.282-.74-.887.255.87,2.558,2.541-1.308.587,1.66,2.869-.414-.424-.193-.836-2.051Zm-.666-3.805-1.8,1.48,2.169-.1-.152,1.157-1.83.524,2.282.74,2.44-.232-.378-.92,4.247-1.577-2.722-1.261Zm-21.771,2.13,1.627,1.484,1.768-.175-1.231-2.169-1.333-.33Zm-3.5-.614,2.411.614h1.084l.83-1.189-3.078-1.4-1.248.27Zm3.191,2.289,1.931-.191-1.627-1.484h-1.084Zm-18.383-18.5-.638.151.164.123-.181.819-1.79-.819.006,1.063,2.44.622,1.756.8.678-.579-.243-1.726-.892.271ZM154.9,34.8l1.361.454.373.77.294.822,2.163-1.834-1.756-.8-2.44-.622Zm6.913-.368h-2.044l-2.841,2.414.452,1.245,4.072.649L164,38.189l-1.514-.616.909-.58Zm-5.67-3.156-.215.546.768.578.638-.151,1.3.728.892-.271-.277-1.966-.508.477Zm5.309,7.466-4.072-.649.254.707L156.18,40.62v1.028h5.506l.531,1.006-.954,1.5.836.35.226-.694h3.264l-.723.75,1.005.569,1.355-.106-1.288-1.645,3.389-.72.864-1.941L164,38.191Zm-7.754-15.9L148,27.026v3.721l-.785,1.229,2.146,2.471,3.5-3.1-1.638-2.033,3.688-4.031h.729l-1.005-2.441Zm-10.058,9.414,3.338-.546.232.266L148,30.747V27.026l5.71-4.184h3.157V21.8l-3.236.165-11.1,7.681Zm13.221-9.414h-2.225l1,2.441h.587L154.452,29.3l2.073,1.046h3.157l1.773-2.047-2.942-6.585-1.649.084Zm95.67,18.3h1.09L249.777,37.2l-1.09-.031,3.089,3.821,1.514,2.82h1.124Zm-96.291-5.879-1.361-.453.006.905,1.728.319Zm81.381-13.628-1.045-1.419-6.461-1.056L228.3,20.8h-5.23l-2.18-1.637H209.064l-.729-2.607H197.419l-9.623,4.3,2.107,2.608-1.818,1.88-1.643-5.371-2.9-.23,1.395,3.176-11.222.3-10.488,4.305-1.384-2.636,3.987.15,1.943-.97-7.641-2.436-1.627.083,2.942,6.585-1.773,2.047-.429.4.277,1.966.243,1.726h2.044L163.381,37l-.909.58,1.514.616,6.2,2.523-.864,1.941.407.97-1,.273L168.9,45.5l3.62,1.268,1.248-.27,3.078,1.4,1.333.33-.83-1.455V43.81l-1.333-1.667V38.861h9.962V36.32l5.619-1.267,14.254,5.027,2.445,1.429,3.01-2.293,4.032,1.228,1.09-2.456,9.917,2.456H231.2l1.819-.364-.971-3.426h4.247l4.366,4.276,5.941,1.516v4.791l2.6-.457,1.4-2.09V40.809l-4-4.548-3.88-.06.666-4.79,8,.06.87-2.719,3.377,1.278.011-1.253.836.086,1.457,1.394-1.406.957-.169,2.863,5.7,5.4V34.26l-3.213-3.093,7.613-2.41.1-.777-3.829-1.042,1.491-1.162,3.422.707,2.321.046-1.864-2-11.95-2.367Zm-85.335,20.3-1.406,1.153,2.044.76,2.18-.376,1.728-1.817h-.683v-.43Zm-1.045-.988,1.045.988,3.863-.711v-.6l-3.5-.425-.147-.058Zm-7.376,2.811,1.254.09,1.135-.262-.407-1.228h-1.067l-.695.32Zm4.8-2.811h2.575l1.259-.8-2.462-.97-2.2.682Zm-17.3,11.837.508.038.587-4.934-1.909-.319-.1,3.608Zm29.87-8.629.954-1.5-.531-1.006h-1.632Zm-4.625-8.121-1.728-.319-1.819.06-.412-.378-2.609.636-.232,0,.232,3.141,2.468.97.141.058,3.5.425,1.457-1.817-.254-.707-.452-1.245Zm.226,5.619-1.728,1.817,1.547,2.57,3.863-.44,1.1.3.452-1.4-.836-.35-1.209-2.5ZM149.8,36.026l-3.349-.038-.152-.6h-1.175l.237.573L143.6,37.021l-.158,3.041,1.067.557-.424,2.051.695-.32h2.485l.215-.063,1.8-.529-.616-.819-.83-1.092,2.2-.682Zm-4.676-.634H146.3l-.062-.252.384-2.158-1.056-.015-.751,1.693Zm3.134-.756-.661-.655-.587.241-.181.928,1.1-.011Zm1.022,7.122-2.016.591h-1.418l.407,1.228,2.152-.5h2.474l1.034-.849.373-.3-1.045-.988h-2.575Zm1.231,9.821H148.33v.546l.819.561,1.367.212ZM144.784,48.5v2.244h1.045v-1.94Zm-.915-4.754-.2.964,1.265.577H146.4l4.518,4.508.232,1.918.83-.485.26-1.379,1.028-.206-5.512-4.77,1.564-.094-.915-1.7-3.287.76Zm1.44,3.208v.925l.52.2.232-1.121Zm-10.425-5.67v.667l1.875,1.013.248,3.322,2.779,1.777.858-1.11,4.066.029.119-1.7h.107l-1.265-.577.841-4.1-3.7-1.93-4.337,2.6Zm6.963-3.217-1.034.617,2.073,1.081.593-.32.023-.5Zm1.655.878.1-1.93-1.756,1.052Zm-.616.82.559.291.028-.611ZM136.1,35.041l.023,1.394-.954.523.841,1.225L134.3,39.8l2.253-.409,2.293-.364.147-.841h.469l.1-.939-1.485-.313-1.858-4.27L134.8,32.62v2.3Zm-1.8,1.008v-.911l-1.66-.112L133.6,36.3Zm-3.343.211v2.487l.954-.006V37.89l1.819.25L133.6,36.3l-.954-1.274Zm.915,16.559,3.982.3,3.931-5.047-2.779-1.777-6.427.046-.028,1.227,1.909.319Zm8.821-2.123V49.626l-1.231,1.068Zm14.548-1.242,2.524-.817-.582-1.357-2.078.407Zm-1.6-5.738.463,2.575,1,1.394,2.078-.407-.531-1.245-1.547-2.57Zm-4.32,1.067.232-.014,1.186-.621.536-.921-.4-.148h-2.474Zm12.605,4.995-1.881-.015,1.547,3.11,7.11.393,6.986-1.425V50.747l-.779-1.675-2.411-.614-9.736.319Zm-1.886-.7h1.734l-.7-1.508-1.05.339Zm-7.765-2.016.627.155,1.2-.921-.339-1.894-2.57.348Zm2.027,2.7.8.926,1.547.433-.943.4,1.248,1.569.785-1.242-.875-1.911,1.739-.856h1.434l-.017-1.168Zm-1.378-5.913-1.649-.612-.536.921-1.186.621.412-.025,1.915,2.214.4.1L151.2,44.745l2.57-.348-.124-.681Zm.729,3.558.9-.481-.452-.626-1.2.921Zm0,0,.508,2.192.141.165.937-.3-.136-1.767-.548-.768Zm4.111,1.237,3.309-1.07.542-1.668-1.1-.3-3.863.44Zm24.7,15.892.768.508.5-.52-.881-1.242ZM167.142,54.063l-2.027.751,1.451.364Zm1.3,2.594V60.3l.762.091,1.135-.531.35-2.047.887-.375.045-.019-.26-1.087-1.824,1.087Zm13.769,7.709-2-3.276h-.875l-.627-.813L177,60.272l-5.416-2.831-.892.375-.344,2.047-1.141.531-.757-.091,7.065,12.278.141.457.734-1.259,2.508.316-.232.954,3.552-1.864,5-1.338v-2.6l-2.6-.367-.791-1.451Zm-4.3-4.091.8,0,.621.813h.875l-1.062-1.728h-1Zm-5.072-4.824-1.48.883.271,1.136,5.36,2.8.921,0,.232-.913,1.971-.012-4.428-7.506-2.033.415ZM185.717,65.8l-1.9-.373.791,1.451,1.468.209,2.09-2.123-.954-.847Zm.361,1.288,1.135.158v2.6l-2.513.672v1.514l1.4.949,4.631-5.738-2.564-2.282ZM169.271,55.129l-.825,1.525,1.1.764,3.3-1.97.813-3.193-4.953,1.01-.333,1.553Zm12.944,16.056-3.552,1.864.232-.954-2.508-.316-.734,1.259,1.254,4.089,9.194-4.145-1.4-.949V70.519ZM168.447,56.654l.825-1.525-.9-.311-.328,1.552Zm-.023,3.7.023-.054V56.654l-.4-.285-.633,2.335Zm7.556,52.037.96,2.27,2.3.1,3.914-12.555h-1.395l-4.546,4.721-.457,3.276ZM150.714,81.553l-.666-1.971h1.333l-1.643-3.49v1.931l-2.361,4.891-2.061.119-.288,2.011h.892l-.045,2.056h5.687l.254-.729H151.8l-1.7-2.395ZM147.438,88.6h-1.6l-.051,2.445,2.05,2.739V91.436h2.632L149.127,87.1h-1.689Zm0,0V87.1h-1.559l-.04,1.5ZM142.1,83.433l.361,1.61h2.564l.288-2.011,2.061-.119,2.361-4.891V76.092H140.9l-1.434,6.958ZM129.061,82.1l.649.729v3.033l4.812-1.389v-4.45l-4.7-.926v2.338Zm.649,3.761V82.829l-1.739-1.96-1.542,1.451Zm28.966,14.153-1.66-.819V96.169h-1.875l-.378,1.333-1.869.062-.486-1.677-2.971.023v6.625l-1.694,2.79.147,1.819h10.476l-1.711-2.123v-2.366h2.09Zm-20.89-16.485-.779-4.767h-2.485v5.71Zm11.34,3.569,1.344,4.337h-2.632V93.78l1.034,1.378,2.508-1.146,2.637-4.377.418-3.264h-2.62l-.254.729Zm24.51-12.024,1.553,2.457.593-.5-3.936-6.76-2.033,4.8Zm-47.2,7.246,1.536-1.451L126.4,79.1l-1.53,1.536ZM175.6,79.136l.988-.712-.808-1.389-1.18.988ZM168.294,101.2v1.457l1.276.853v1.819l-1.214,1.062v-2.129l-1.214-.994-.034.023-2.293,1.6,2.293,1.5v2.1l-1.434,3.355v3.716l1.039-.017.068-.5,2.152-1.5-.158-4.524,5.049-4.14-.5-4.721Zm8.3-22.771-.988.712,1.005,1.13,4,1.418L174.36,86.89v4.529l9.8-11.4-.4-2-6.811,1.011Zm-24.968,39.239h3.761v-9.618h4.992l-.649-.9H147.89Zm18.626-32.92-1.717.243.491,2.112-.243,1.79-.768,1.355,4.7,3.1,1.649-1.926V86.89l1.819-1.519h-5.331Zm-2.236,5.5-.294.514H166.03l.435-.745H165.7l-1.728,4.281,3.14,4.422h1.186V101.2l5.026-1.045-.61-6.805ZM129.547,63.418h-2.79v3.2l-1.028,1.559h-3.445l-.124,3.6,4.236,3.044v-1.09h5.094L131,65.045h2.683l-4.14-3.055ZM165,91.752l.7-1.739h-1.491l-.474,2Zm-1.028,2.541L165,91.752l-1.265.265-.344,1.451ZM123.233,78.87l1.632,1.762L126.4,79.1l1.576,1.773,1.09,1.231.762-.666V79.1l-.367-1.666H124.6Zm8.257-5.139H126.4v1.09l1.152,2.609h1.909l.367,1.666,2.349.463V77.2l9.019-3.654V70.574l-7.506-5.529H131Zm31.35,26.922,1.819.729-.633,1.271-5.348-2.637.068,2.637h-2.09v2.366l1.711,2.123h3.2l5.54-3.857V98.716l-.695-.977-3.027.457Zm-7.455,13.582,1.514,1.745,6.178-4.14-2.7-3.8h-4.992ZM132.173,79.559l2.349.463V78.763h2.485l2.886-1.062-2.756-2.508L132.173,77.2Zm34.936,19.157v4.569l.034-.023,1.214.994v2.129l1.214-1.062V103.5l-1.276-.853V98.716Zm8.082-21.184-1.553-2.457h-3.823l-2.705,6.387,3.739,3.908h5.331l4.433-3.688-4-1.418-2-2.242ZM164.206,90.013h2.259l.644-1.124h1.672l.243-1.79-.491-2.112-3.236.452ZM141.192,70.574V73.55l-4.055,1.643L139.9,77.7l.723-.265.277-1.344h8.838L151.73,72l-.785-5.382h-3.931Zm-18.9-2.395h3.439l1.034-1.559v-3.2h2.79V61.476H126.48l-4.145,5.4Zm-.254,7.1,2.784.813h-2.812l-.051,1.338h5.591L126.4,74.821l-4.236-3.044Zm2.784.813-2.784-.813-.028.813ZM151.724,72l-1.988,4.089,1.643,3.49h-1.333l.666,1.971,6.6-3.117V75.041l1.468-1.446.147-3.3L153.2,66.621h-2.253Zm.017-13.373-1.2-1.458-2.581-.62-2.4,2.582,1.559,7.489H153.2l5.727,3.677.559-12.673-3.332-.452-1.378,2.062Zm-22.675,2.845h.486v-.413l6.913-3.773V54.581l-5.094.531-4.891,6.365Zm7.4-6.89v2.707l-6.913,3.773v.926l11.64,8.584,5.823-3.953h.1l-2.841-13.65-3.343-.1Zm7.811-1.615,1.282,6.167,2.4-2.581-.943-.226.119-3.276Zm15.452,54.171,3.349,4.7h2.6l1.434-3.355v-2.1l-2.293-1.5-3.247,2.259Zm1.536,12.8H162.6l.791-.825v-1.056H162.3l-1.033.666Zm4.411-4.727h-1.017v.932l1.017.61ZM168.407,60.4l.017-.047L167.413,58.7l-7.929-1.078-.424,9.612h8.692l1.751-1-3.6-6.19,1.971,1.607Zm1.1,5.845-1.751,1h-8.7l-.277,6.354-1.468,1.446v3.394l5.2,5.986,2.784,1.017,4.947-.695-3.134-3.281,2.705-6.387,2.033-4.8Zm-6.116,27.227,1.909-8.031-2.784-1.017-7.856.22-.638,4.992-2.637,4.377-2.508,1.146.565.751,2.971-.023.486,1.677,1.869-.062.378-1.333h1.875V99.2l7.009,3.456.633-1.271-1.819-.729.548-2.457,3.027-.457ZM150.1,83.975l1.7,2.395h2.632l.22-1.728,7.856-.22-5.2-5.986-6.6,3.117Zm-9.482-6.54-2.462.9.808,4.851.5-.141Zm-2.462.9-1.152.424.779,4.767,1.18-.339Zm-14.926.531,1.372-1.44h-2.643l-.006.062ZM46.256,22.225,44.2,21.375,33.4,21.436l-4.366,1.759v1.941l-4.911-.06-.932,1.3,4.145-.149-5.336,2-2.578,3.493,2.214-.037-4.245,2.789,1.552.121,8.127-3.88,9.381-.328,2.85,2.85,1.076-1.159-.94-.971H38.379l-1.036-1.187,8.917-7.7ZM39.2,40.274l-1.486-1.213-.637.546,1.036,1.354H39.2ZM96.13,42.152,95.017,40.38l-1.005-.24V38.869l-3.236,3.283ZM94.436,21.64l-6.517-2.662-.971-.01-2.265,1.86.757-1.872-1.1-.008-2.637,2.8,6.41-.348,3.914,3.5L89.4,24.861l-1.327,1.087H85.083V26.8h3.033l2.57,2.125.7-.306-.61-1.35,1.768.841.576-.25V25.225l2.033.723,1.169-.78-.661-1.234-1.175-.428ZM72.489,45.433H74.37l1.3-.893h4.213l1.819-1.577h1.638l-.593,1.866,2.908-.5-1.909.909.181.789L89.116,44.2l-2.53-.12-1.18-1.063,1.169-1.813L86,40.663l-3.665,1.663v-.955l3.507-1.683,5.619-.242L95.689,37.2l.023-1.026-3.078-.533-.373-5.032-4.027,1.585.028-2.367L86.32,28.172H83.683L76.55,38.552l-1.728.006.034-3.414-6.145-3.335,6.145-4.548,3.485-.636-.729-1.078,5.365-.591,2.186-2.274-2.05-.227-2.818,1.864.316-1.591-1.316-.137-.311-1.923L76.7,21.681,77.3,22.91l-3.05,1.455-5.32-1-2.812,1.319-6.828-2.728-13.052.273-8.917,7.7,1.036,1.187h1.061l.94.971-1.076,1.159-1.092,5,1.956,1.774v.955H62.064l2.575,1.175L69,41.216l.548,1.933.881.651,1.48-.1Zm7.867-19.484-1.672,1.359,3.3.35.35-.855Zm-6.45-3.458.616.795,1.559-.795-.463-.738Zm1.18-2.669.994,1.008,2.135-.713.559-1.492Zm4.072-.6.271.955,2.909-.773-.587-.779Zm7.415-1.978-1.593-.66L83.434,17.9l6.274.494,1.638-1.153Zm15.277-3.525,3.276-1.848-13.006.965v.7l4.388-.091-.616.819-4.546.09.593,1.046-1.96-.319.774,1H87.388l.5.5h3.682l.593.5,5.365-2.5Zm-15.915.759,2.423.458,1.389-.889L88.743,13.3ZM60.347,20.832,66.04,18.9l-1.31-.607-5.382,1.371Zm6.427-1.583-3.067,1.043,1.808.761-2.82.718,3.5,1.364,2.412-1.046,2.683.637,2.011-.461-1.965-.908L72.851,19.4H71.337l-.909,1.176L70.061,19.4l-1.6.622ZM62.331,67.157h2.794l2.253,1.5-.858.954h3.908l-4.671-3.366H63.286Zm3.912,4.185.587.5h1.683v-.593l-.587-.593H66.243Zm10.363-.463-.345.57h.943l.344-.57Zm-20.777,2.44H54.238l-.756,1.344L55.735,75.8l1.527-2.756-.3-1.468H55.6ZM57.6,75.549l-.274.966.41.186L61.5,73.55l-4.536.045-.748,1.338Zm-.274.966.274-.966-1.384-.616-.483.864Zm1.411-6.263-1.774,1.322.3,1.468Zm.431,8.381,2.454.26L61.5,73.55,57.739,76.7Zm3.953,14.876,2.008.96,3.581-4.394-3.648-2.084-1.731,2.18ZM70.5,77.955l-.971-.006L67.5,80.689l-1.034.068.294.994-.542.768.418,1.389-.4,2.592-1.18,1.491L73.4,92.752V87.409l1.937-.13V83.038l-3.18-.328-1.384-1.53Zm13.238,64.834,1.242,1.141,3.829.141-4.134-2.157Zm5.885-27.532-1.672,1.017H85.7v-2l-4.591-3.106-.26.474H77.023L76,121.187l2.163,9.46,1.954,3.479.09,2.609,2.9,4.445,1.056.107-.548-11.369,6.156-2.666-2.79-3.886v-4.275L89.7,116.3Zm.678,9.33,1.333-2.31-4.654-3.185v4.275ZM77.339,79.469,75.278,78,70.5,77.955l.271,3.225,1.384,1.53,3.18.328v4.241l.508-.034.644,1.44,2.067-.666-.169-2.236,2.767-1.017.819-4.044-.932-.892Zm-18.174-.836L60.8,80.841l.59.209.828-1.073-.58-.322-.018-.762Zm25.685,4.834-2.886-2.745-.819,4.044,1.2-.441-.164,3.451,2.762-.311L84,85.049Zm-7.139,16.655-2.818.8v6.444l2.123,4.281h3.829l1.491-2.733,2.886-.017-.068-2.157-4.913-4.015Zm9.714-12.927,1.852-.209.548-1.553-.729-1.6L87.55,83.7Zm-2.2,21.7-2.886.017-1.231,2.259,4.591,3.106v2h2.248l1.672-1.017-.113-1.581-4.2-2.242Zm-.277-21.427,2.479-.271.124-3.49-2.7-.237L84,85.049Zm11.606,3.462-2.1-.909-2.1,1.231.683-1.841-1.395-.6-1.982,1.525,1.44-2.123-1.271-2.773-.548,1.553-7.093.791.164-3.451-1.2.44-2.767,1.017.169,2.236-2.067.666-.644-1.44-2.445.164v6.308l-2.485.3-1.1,3.575,4.157,3.581,3.744-1.056,2.53,2.6,4.913,4.015.147,4.7,4.2,2.242.186,2.626-2.716,2.79,4.654,3.185,2.711-4.727.638-4.094,6.585-2.914,1.226-9.1,2.841-3.716V95.474l-4.648-3.027-4.546-.277ZM64.011,79.9l-.771.644-1.023-.565-.828,1.073,2.436.87.59-.881,1.395.136.407,1.344.542-.768-.254-.932-.3-1.113Zm6.9,14.125,2.485-.3v-.966L68.7,90.075l-3.581,4.394-2.008-.96-.064,1.028,6.1,10.386,5.269,3.53.474-1.09v-6.444l-.926.26L69.812,97.6Zm7.246,36.624-2.163-9.46,1.028-9.544-2.123-4.281-.474,1.09.887,21.6,2.332,1.886.107,3.874,4.044,5.23,1.31.136-2.9-4.445-.09-2.609ZM75.329,70.105l-2.75-.3v1.519l.921-.683h1.468Zm-2.75.841V69.8H70.862l.559.791h-1v.356Zm180.552,9.787" transform="translate(-17.394 -11.871)" fill="#fff" stroke="#313073" stroke-linejoin="bevel" stroke-width="0.25"/>
        <path id="Path_30" data-name="Path 30" d="M445.057,198.455l-.565,1.807,4.123-2.937-1.186-1.581v-1.807l-.678.282v2.541Zm-10.843,5.93,8.584-4.349v1.13l-6.608,4.349ZM399.03,182.077l7.229-3.389,5.365-5.93,2.937,1.3,1.3-2.711,4.913-.113-1.242,2.259,4.066,3.5,2.711-2.711V170.5l1.242.4,1.412,6.777,4.405,6.212-.452,4.687-8.02,8.3-6.946-.4-.847-4.687-2.372,1.017-2.259-1.977-13.724,2.993-.847-1.017,1.13-2.711Z" transform="translate(-183.007 -80.913)" fill="#fff" stroke="#313073" stroke-linejoin="bevel" stroke-width="0.25"/>
      </g>
    </g>
    <circle id="Ellipse_25" data-name="Ellipse 25" cx="2" cy="2" r="2" transform="translate(658 8315)" fill="#cb2229"/>
    <circle id="Ellipse_26" data-name="Ellipse 26" cx="2" cy="2" r="2" transform="translate(633 8304)" fill="#cb2229"/>
    <circle id="Ellipse_27" data-name="Ellipse 27" cx="2" cy="2" r="2" transform="translate(515 8283)" fill="#cb2229"/>
  </g>
</svg>
