<svg id="hollow-cut-google" xmlns="http://www.w3.org/2000/svg" width="45.226" height="45.226" viewBox="0 0 45.226 45.226">
  <path id="Path_31" data-name="Path 31" d="M30.584,56.774a6.229,6.229,0,0,0-4.116,1.764,3.293,3.293,0,0,0-.769,1.945,3.625,3.625,0,0,0,.362,1.492A4.769,4.769,0,0,0,30,64.056c2.261.136,4.7-.9,5.472-2.668a3.009,3.009,0,0,0,0-2.261C34.79,57.588,32.755,56.593,30.584,56.774Z" transform="translate(-14.077 -31.086)" fill="#fff"/>
  <path id="Path_32" data-name="Path 32" d="M34.116,27.269a2.946,2.946,0,0,0-2.487-.995c-1.764.226-2.623,2.216-2.307,4.387A5.474,5.474,0,0,0,31.9,34.506a2.815,2.815,0,0,0,1.628.181c1.447-.362,2.216-2.126,2.035-3.935A5.672,5.672,0,0,0,34.116,27.269Z" transform="translate(-16.025 -14.38)" fill="#fff"/>
  <path id="Path_33" data-name="Path 33" d="M22.613,0A22.613,22.613,0,1,0,45.226,22.613,22.621,22.621,0,0,0,22.613,0ZM21.3,12.166a3.311,3.311,0,0,1,1.085,1.266,7.216,7.216,0,0,1,.317,2.623c0,2.307-1.266,3.3-2.487,4.387-.5.452-.95.814-.95,1.357,0,.588.588,1.04.995,1.4,1.266,1.085,2.714,2.035,3.347,3.754a4.93,4.93,0,0,1,.226,1.492c0,3.709-2.578,5.382-5.653,5.925-3.618.633-7.327-.09-8.729-2.4a3.766,3.766,0,0,1-.588-1.9c-.271-4.3,4.161-5.337,8.276-5.427a1.626,1.626,0,0,0-.317-.814c-.181-.226-.5-.317-.588-.588-.136-.452.09-.95,0-1.583-3.935.181-6.2-1.99-5.879-5.653.271-3.437,2.94-4.975,6.377-5.337,2.035-.226,4.658.09,7.055-.045-.271,1.131-2.216.588-3.03,1.131A1.073,1.073,0,0,0,21.3,12.166Zm15.015,4.523H31.658V21.3a13.609,13.609,0,0,1-1.4.045V16.688H25.6c.045-.452-.045-.995.045-1.4h4.613c.045-1.538-.045-3.166.045-4.658h1.312c.09,1.447,0,3.121.045,4.658h4.613A7.153,7.153,0,0,1,36.317,16.688Z" fill="#fff"/>
</svg>
