<svg id="hollow-cut-facebook" xmlns="http://www.w3.org/2000/svg" width="45.226" height="45.226" viewBox="0 0 45.226 45.226">
  <path id="hollow-cut-facebook-2" data-name="hollow-cut-facebook" d="M22.613,0A22.613,22.613,0,1,0,45.226,22.613,22.621,22.621,0,0,0,22.613,0Zm3.166,16.688c1.583,0,3.256-.045,4.839.045-.045,1.673,0,3.437-.045,5.111H25.779V37.673H18.995V21.844c-1.4-.045-2.894,0-4.342-.045V16.643h4.3c.045-1.357,0-2.578.09-3.663a5.9,5.9,0,0,1,.95-2.759,6.081,6.081,0,0,1,4.839-2.714c1.809-.09,3.844.045,5.789.045,0,1.719.045,3.482-.045,5.156-.95.045-1.945-.09-2.759,0A2.1,2.1,0,0,0,26.05,13.93,5.993,5.993,0,0,0,25.779,16.688Z" fill="#fff"/>
</svg>
