<svg id="hollow-cut-youtube" xmlns="http://www.w3.org/2000/svg" width="45.226" height="45.226" viewBox="0 0 45.226 45.226">
  <path id="Path_37" data-name="Path 37" d="M32.186,53.419V51.7H27.076c-.045,0,0,.045,0,.045v1.628c.588,0,1.221-.045,1.719,0v9.271h1.673c0-3.075-.045-6.241,0-9.317A10.945,10.945,0,0,0,32.186,53.419Z" transform="translate(-14.819 -28.318)" fill="#fff"/>
  <path id="Path_38" data-name="Path 38" d="M41.189,63.237a4.331,4.331,0,0,1,0,.769,1.222,1.222,0,0,1-.95.633c-.452-.045-.317-.95-.317-1.447V57.9H38.476c-.045,0,0,.045,0,.045V63.96a3.343,3.343,0,0,0,.226,1.764c.543.814,1.809.136,2.216-.271.09-.09.181-.226.317-.271v.859h1.492V57.9H41.234C41.189,59.619,41.189,61.563,41.189,63.237Z" transform="translate(-21.063 -31.714)" fill="#fff"/>
  <g id="Group_51" data-name="Group 51">
    <path id="Path_39" data-name="Path 39" d="M46.385,30.542a3.446,3.446,0,0,0,.09,1.221.7.7,0,0,0,1.131-.136,3.65,3.65,0,0,0,.045-1.221V27.874a3.422,3.422,0,0,0-.045-1.221.668.668,0,0,0-.724-.271c-.633.09-.5.9-.5,1.583S46.385,29.819,46.385,30.542Z" transform="translate(-25.4 -14.442)" fill="#fff"/>
    <path id="Path_40" data-name="Path 40" d="M22.613,0A22.613,22.613,0,1,0,45.226,22.613,22.621,22.621,0,0,0,22.613,0Zm2.442,14.879V10.719a8.226,8.226,0,0,1,1.492,0v3.121c0,1.085-.09,2.216,0,3.166.09.543.5.5.859.226a1.167,1.167,0,0,0,.407-.407,4.357,4.357,0,0,0,0-.769V10.764a8.226,8.226,0,0,1,1.492,0v8a8.226,8.226,0,0,1-1.492,0v-.814c-.362.407-1.538,1.447-2.352.769C24.829,18.136,25.055,16.055,25.055,14.879Zm-3.709-4.387a2.12,2.12,0,0,1,2.171.95c.407.678.271,2.216.271,3.211a10.531,10.531,0,0,1-.226,3.256,2.32,2.32,0,0,1-3.121.724A2.049,2.049,0,0,1,19.492,17a21.173,21.173,0,0,1,0-2.4,8.109,8.109,0,0,1,.226-3.121A2.027,2.027,0,0,1,21.347,10.492ZM13.884,7.869c.5-.045,1.131,0,1.673,0,.362,1.266.678,2.578.995,3.844a.948.948,0,0,0,.181.5c.136-.136.136-.362.181-.5.317-1.266.633-2.623.95-3.844h1.673c-.5,1.809-1.131,3.709-1.673,5.563a2.745,2.745,0,0,0-.226.814,9.431,9.431,0,0,0,0,1.131v3.392c-.543,0-1.131.045-1.673,0V16.643a16.663,16.663,0,0,0,0-2.126c-.045-.271-.181-.543-.226-.814-.678-1.99-1.221-3.98-1.854-5.834Zm20.94,25.553a3.957,3.957,0,0,1-3.98,3.98H14.337a3.957,3.957,0,0,1-3.98-3.98V24.874a3.957,3.957,0,0,1,3.98-3.98H30.844a3.957,3.957,0,0,1,3.98,3.98Z" fill="#fff"/>
  </g>
  <path id="Path_41" data-name="Path 41" d="M55.272,58.8c0-.95.045-1.9,0-2.533a2.1,2.1,0,0,0-.588-1.538,1.5,1.5,0,0,0-1.719,0,3.937,3.937,0,0,1-.5.407V51.7H50.976c-.045,0,0,.045,0,.045V62.69h1.492V62.1a1.84,1.84,0,0,0,2.08.543,1.607,1.607,0,0,0,.724-1.312C55.317,60.61,55.272,59.7,55.272,58.8Zm-1.764,2.714c-.362.226-.769-.09-.995-.317V57.489a5.474,5.474,0,0,1,0-1.221.688.688,0,0,1,.95-.271c.5.271.271,1.99.271,2.759v1.538C53.734,60.745,53.78,61.333,53.508,61.514Z" transform="translate(-27.91 -28.318)" fill="#fff"/>
  <path id="Path_42" data-name="Path 42" d="M67.3,62.879H65.759c-.045.588.136,1.447-.271,1.719a.782.782,0,0,1-.724.045c-.633-.271-.226-1.764-.362-2.578h2.849a22.813,22.813,0,0,0-.09-3.121A1.962,1.962,0,0,0,64.99,57.5a2.144,2.144,0,0,0-2.08,1.764,31.946,31.946,0,0,0-.045,3.663c0,1.357.136,2.261.9,2.8a2.611,2.611,0,0,0,2.578.045C67.161,65.321,67.342,64.326,67.3,62.879Zm-2.714-3.618a.747.747,0,0,1,.95-.09c.362.271.226.995.271,1.538H64.492A2.486,2.486,0,0,1,64.583,59.261Z" transform="translate(-34.417 -31.492)" fill="#fff"/>
</svg>
