<svg id="hollow-cut-linkedin" xmlns="http://www.w3.org/2000/svg" width="45.226" height="45.226" viewBox="0 0 45.226 45.226">
  <path id="hollow-cut-linkedin-2" data-name="hollow-cut-linkedin" d="M22.613,0A22.613,22.613,0,1,0,45.226,22.613,22.621,22.621,0,0,0,22.613,0ZM16.281,34.055H11.533v-15.2c0-.045,0-.09.045-.09h4.749C16.281,23.834,16.281,28.945,16.281,34.055ZM12.347,16.236a2.976,2.976,0,0,1-1.176-2.759,2.885,2.885,0,0,1,1.447-2.035,1.781,1.781,0,0,1,.9-.226,2.712,2.712,0,0,1,3.166,2.759A2.805,2.805,0,0,1,12.347,16.236ZM34.1,34.055H29.352V28.583c0-2.307.317-4.975-1.266-5.789a3.165,3.165,0,0,0-2.487,0c-1.719.769-1.583,3.211-1.583,5.879v5.382H19.266V18.769h4.568v2.08c.181-.136.226-.317.362-.5a5.114,5.114,0,0,1,4.116-1.99c2.352,0,4.025.814,4.884,2.307.9,1.583.9,3.8.9,6.286Z" fill="#fff"/>
</svg>
