<svg id="hollow-cut-twitter" xmlns="http://www.w3.org/2000/svg" width="45.226" height="45.226" viewBox="0 0 45.226 45.226">
  <path id="hollow-cut-twitter-2" data-name="hollow-cut-twitter" d="M22.613,0A22.613,22.613,0,1,0,45.226,22.613,22.621,22.621,0,0,0,22.613,0ZM34.688,16.462a17.992,17.992,0,0,1-2.578,9.995,16.908,16.908,0,0,1-5.97,6.015A17.078,17.078,0,0,1,16.6,34.914a17.3,17.3,0,0,1-8.729-2.533,1.408,1.408,0,0,1-.407-.317,12.329,12.329,0,0,0,9.181-2.533,5.837,5.837,0,0,1-3.709-1.357,6.27,6.27,0,0,1-2.08-2.985,6.07,6.07,0,0,0,2.714-.09,6.147,6.147,0,0,1-3.437-2.126A5.831,5.831,0,0,1,8.683,18.9c.045-.09.181.045.271.09a6.7,6.7,0,0,0,2.487.633,6.177,6.177,0,0,1-2.623-6.105,6.415,6.415,0,0,1,.769-2.216c.407.407.769.859,1.176,1.266a17.628,17.628,0,0,0,11.668,5.246,6.076,6.076,0,0,1,2.985-6.784,6.323,6.323,0,0,1,7.553,1.176A12.721,12.721,0,0,0,36.9,10.719a6.02,6.02,0,0,1-2.714,3.392,12.265,12.265,0,0,0,3.528-.95A12.4,12.4,0,0,1,34.688,16.462Z" fill="#fff"/>
</svg>
