<svg id="hollow-cut-instagram" xmlns="http://www.w3.org/2000/svg" width="45.226" height="45.226" viewBox="0 0 45.226 45.226">
  <path id="Path_34" data-name="Path 34" d="M45.575,49.545a3.662,3.662,0,1,0-.588-7.281,3.551,3.551,0,0,0-3.075,2.894A3.738,3.738,0,0,0,45.575,49.545Z" transform="translate(-22.916 -23.133)" fill="#fff"/>
  <path id="Path_35" data-name="Path 35" d="M66.973,26.6H64.124a.714.714,0,0,0-.724.724v2.849a.714.714,0,0,0,.724.724h2.849a.714.714,0,0,0,.724-.724V27.324A.688.688,0,0,0,66.973,26.6Z" transform="translate(-34.727 -14.57)" fill="#fff"/>
  <path id="Path_36" data-name="Path 36" d="M22.613,0A22.613,22.613,0,1,0,45.226,22.613,22.621,22.621,0,0,0,22.613,0ZM35.322,29.487a5.846,5.846,0,0,1-1.221,4.07,5.12,5.12,0,0,1-3.437,1.809c-2.533.181-5.246,0-7.96,0-2.578,0-5.337.181-7.96,0a5,5,0,0,1-4.749-4.749c-.271-3.528.181-7.688,0-11.487,0-.09.045-.181.136-.181h7.146c.226.136-.181.452-.317.678a6.732,6.732,0,0,0-.724,3.754,6.382,6.382,0,0,0,11.352,3.392,6.453,6.453,0,0,0,1.176-6.06,3.39,3.39,0,0,0-.452-.9,2.059,2.059,0,0,1-.362-.859h7.281C35.367,22.658,35.322,26.05,35.322,29.487ZM17.638,22.839a5.113,5.113,0,0,1,1.492-3.709,4.607,4.607,0,0,1,3.211-1.357,4.9,4.9,0,0,1,5.291,4.3,5.082,5.082,0,0,1-4.206,5.608,8.731,8.731,0,0,1-1.538,0A4.937,4.937,0,0,1,17.638,22.839Zm17.683-4.613h-5.97a9.751,9.751,0,0,1-1.99,0c-.362-.09-.543-.452-.859-.678a6.724,6.724,0,0,0-4.432-1.221,5.446,5.446,0,0,0-3.256,1.312,3.829,3.829,0,0,1-.859.633,10.176,10.176,0,0,1-2.035,0H9.995c.09-1.492-.181-2.94.045-4.206a4.942,4.942,0,0,1,2.08-3.166v5.291h.995s-.09-4.07.045-5.925c.136-.136.452-.09.633-.226.136,1.9.136,6.151.136,6.151h.995V10.085c0-.09,0-.181.045-.181H15.6v6.286h1.04V9.9c4.251.226,9.724-.271,13.884,0a5.142,5.142,0,0,1,3.754,1.9C35.412,13.251,35.367,15.377,35.322,18.226Z" fill="#fff"/>
</svg>
