<svg xmlns="http://www.w3.org/2000/svg" width="38.391" height="55.109" viewBox="0 0 38.391 55.109">
  <g id="noun_phone_call_4021442" data-name="noun_phone call_4021442" transform="translate(-9.5 0.5)">
    <g id="Layer_16" data-name="Layer 16" transform="translate(10)">
      <path id="Path_24" data-name="Path 24" d="M39.591,42.273a.845.845,0,0,0-.845.845v6.764a2.536,2.536,0,0,1-2.536,2.536H14.227a2.536,2.536,0,0,1-2.536-2.536V4.227a2.536,2.536,0,0,1,2.536-2.536H15.4l.99,1.98a2.522,2.522,0,0,0,2.268,1.4H31.782a2.522,2.522,0,0,0,2.268-1.4l.99-1.98h1.168a2.536,2.536,0,0,1,2.536,2.536V27.055a.845.845,0,1,0,1.691,0V4.227A4.232,4.232,0,0,0,36.209,0H14.227A4.232,4.232,0,0,0,10,4.227V49.882a4.232,4.232,0,0,0,4.227,4.227H36.209a4.232,4.232,0,0,0,4.227-4.227V43.119A.845.845,0,0,0,39.591,42.273ZM33.15,1.691l-.612,1.223a.84.84,0,0,1-.756.468H18.654a.84.84,0,0,1-.756-.468l-.612-1.223Z" transform="translate(-10)" fill="#fff" stroke="#fff" stroke-width="1"/>
      <path id="Path_25" data-name="Path 25" d="M28.536,59.691a.845.845,0,0,0,0-1.691H26.845a.845.845,0,0,0,0,1.691Z" transform="translate(-12.473 -8.963)" fill="#fff" stroke="#fff" stroke-width="1"/>
      <path id="Path_26" data-name="Path 26" d="M48.28,34.685l-2.558-2.559a2.721,2.721,0,0,0-3.755,0l-.852.852a2.748,2.748,0,0,1-3.172.54,14.108,14.108,0,0,1-6.4-6.4,2.744,2.744,0,0,1,.539-3.173l.852-.852a2.658,2.658,0,0,0,0-3.754l-2.558-2.558a2.656,2.656,0,0,0-3.754,0l-2.308,2.308a7.953,7.953,0,0,0-.729,10.325A59.352,59.352,0,0,0,35.648,41.477a7.957,7.957,0,0,0,10.325-.73l2.308-2.308a2.655,2.655,0,0,0,0-3.753Zm-1.2,2.558L44.777,39.55a6.256,6.256,0,0,1-8.116.57A57.605,57.605,0,0,1,24.936,28.4a6.256,6.256,0,0,1,.57-8.116l2.307-2.308a.966.966,0,0,1,1.363,0l2.558,2.559a.965.965,0,0,1,0,1.362l-.855.851a4.434,4.434,0,0,0-.854,5.128,15.765,15.765,0,0,0,7.156,7.157,4.432,4.432,0,0,0,5.129-.853l.851-.852a.986.986,0,0,1,1.363,0l2.559,2.559a.965.965,0,0,1,0,1.362Z" transform="translate(-11.857 -2.473)" fill="#fff" stroke="#fff" stroke-width="1"/>
    </g>
  </g>
</svg>
