<svg xmlns="http://www.w3.org/2000/svg" width="81.003" height="63.888" viewBox="0 0 81.003 63.888">
  <g id="noun_performance_2108627" transform="translate(0.005 -13.539)">
    <path id="Path_4" data-name="Path 4" d="M79.733,110.5H1.266a1.266,1.266,0,1,0,0,2.531H79.733a1.266,1.266,0,1,0,0-2.531Z" transform="translate(-0.002 -35.603)" fill="#212121"/>
    <path id="Path_5" data-name="Path 5" d="M77.879,64.944h0a40.633,40.633,0,0,0-8.593-12.9,1.183,1.183,0,0,0-.335-.335A40.626,40.626,0,0,0,55.978,43.1l-.07-.038h-.095a40.417,40.417,0,0,0-30.887.108h0a40.632,40.632,0,0,0-12.9,8.562,1.183,1.183,0,0,0-.335.335A40.626,40.626,0,0,0,3.082,65.039l-.038.07V65.2A40.272,40.272,0,0,0,0,80.517a.791.791,0,0,1,0,.316A1.266,1.266,0,0,0,1.266,82.1H7.594a1.266,1.266,0,1,0,0-2.531H2.531a37.747,37.747,0,0,1,2.4-12.34l4.214,1.734a1.266,1.266,0,1,0,.981-2.316L5.9,64.912a38.089,38.089,0,0,1,6.891-10.34L16,57.78a1.266,1.266,0,1,0,1.791-1.791l-3.234-3.183a38.1,38.1,0,0,1,10.125-6.815l1.753,4.2a1.266,1.266,0,1,0,2.335-.975L27.014,45.01a37.728,37.728,0,0,1,12.219-2.43v4.556a1.266,1.266,0,1,0,2.531,0V42.581a37.741,37.741,0,0,1,12.023,2.367l-1.734,4.214a1.266,1.266,0,0,0-.07.734,3.7,3.7,0,0,1,1.766.88,1.266,1.266,0,0,0,.633-.633l1.734-4.208a38.089,38.089,0,0,1,10.327,6.872l-3.208,3.208a1.266,1.266,0,0,0,1.791,1.791l3.183-3.234A38.1,38.1,0,0,1,75.025,64.7l-4.2,1.753a1.266,1.266,0,1,0,.975,2.335l4.208-1.753a37.74,37.74,0,0,1,2.462,12.536h-3.8a1.266,1.266,0,0,0,0,2.531h5.062A1.266,1.266,0,0,0,81,80.834a.791.791,0,0,1,0-.316,40.272,40.272,0,0,0-3.12-15.573Z" transform="translate(-0.002 -9.734)" fill="#212121"/>
    <path id="Path_6" data-name="Path 6" d="M99.852,91.056a1.266,1.266,0,0,0,1.266-1.266A29.109,29.109,0,0,0,86.291,64.44l-.481,2.645A26.578,26.578,0,0,1,98.586,89.79,1.266,1.266,0,0,0,99.852,91.056Z" transform="translate(-31.511 -18.69)" fill="#212121"/>
    <path id="Path_7" data-name="Path 7" d="M18,87.61a1.266,1.266,0,0,0,2.531,0A26.578,26.578,0,0,1,52.311,61.544l1.639-2.227A29.109,29.109,0,0,0,18,87.61Z" transform="translate(-6.612 -16.51)" fill="#212121"/>
    <path id="Path_8" data-name="Path 8" d="M59.052,83.662l4.12-22.667a1.266,1.266,0,0,0-2.265-.975L46.984,78.954a1.266,1.266,0,0,0-.127,1.266L48.2,83.111a4.43,4.43,0,0,0-1.481,2.968H30.266a1.266,1.266,0,0,0,0,2.531H72.031a1.266,1.266,0,0,0,0-2.531H55.578a1.1,1.1,0,0,0-.051-.4l2.746-1.057A1.266,1.266,0,0,0,59.052,83.662Zm-9.771,2.417a1.9,1.9,0,0,1,3.734,0Zm5.113-2.689a4.347,4.347,0,0,0-3.936-1.367l-1.012-2.177L59.685,65.924l-3,16.586Z" transform="translate(-10.651 -16.878)" fill="#212121"/>
    <path id="Path_9" data-name="Path 9" d="M17.66,19.716a1.266,1.266,0,0,0-1.209-.886H11.559l-1.5-4.43a1.266,1.266,0,0,0-2.4,0l-1.5,4.43h-4.9a1.266,1.266,0,0,0-.728,2.3L4.428,23.88l-1.487,4.43a1.266,1.266,0,0,0,1.9,1.443l4.018-2.791,3.968,2.778a1.266,1.266,0,0,0,1.9-1.443l-1.487-4.43,3.917-2.74A1.266,1.266,0,0,0,17.66,19.716Zm-7.1,4.075.563,1.664L9.585,24.38a1.266,1.266,0,0,0-1.449,0L6.6,25.456l.563-1.664a1.266,1.266,0,0,0-.475-1.443l-1.411-.987H7.06a1.266,1.266,0,0,0,1.2-.861l.595-1.759L9.452,20.5a1.266,1.266,0,0,0,1.2.861h1.785l-1.4.981A1.266,1.266,0,0,0,10.56,23.791Z" transform="translate(0 0)" fill="#212121"/>
    <path id="Path_10" data-name="Path 10" d="M117.66,19.716a1.266,1.266,0,0,0-1.209-.886h-4.892l-1.5-4.43a1.266,1.266,0,0,0-2.4,0l-1.5,4.43h-4.9a1.266,1.266,0,0,0-.728,2.3l3.892,2.746-1.487,4.43a1.266,1.266,0,0,0,1.9,1.443l4.018-2.791,3.968,2.778a1.266,1.266,0,0,0,1.9-1.443l-1.487-4.43,3.917-2.74A1.266,1.266,0,0,0,117.66,19.716Zm-7.1,4.069.563,1.664-1.538-1.076a1.266,1.266,0,0,0-1.449,0L106.6,25.449l.563-1.664a1.266,1.266,0,0,0-.475-1.443l-1.4-.981h1.785a1.266,1.266,0,0,0,1.2-.861l.595-1.759.595,1.759a1.266,1.266,0,0,0,1.2.861h1.785l-1.4.981a1.266,1.266,0,0,0-.481,1.449Z" transform="translate(-36.719)" fill="#212121"/>
    <path id="Path_11" data-name="Path 11" d="M67.146,19.745a1.266,1.266,0,0,0-1.209-.886h-3.93l-1.2-3.493a1.266,1.266,0,0,0-2.392,0l-1.2,3.493h-3.93a1.266,1.266,0,0,0-.715,2.291l3.12,2.145L54.5,26.737a1.266,1.266,0,0,0,1.9,1.455L59.565,26l3.164,2.2a1.266,1.266,0,0,0,1.9-1.455l-1.095-3.43,3.12-2.158a1.266,1.266,0,0,0,.494-1.4Zm-5.834,2.038a1.266,1.266,0,0,0-.481,1.455l.247.728-.753-.519a1.266,1.266,0,0,0-1.436,0l-.753.519.247-.728a1.266,1.266,0,0,0-.481-1.455l-.557-.38H58.1a1.266,1.266,0,0,0,1.209-.886l.3-.848.3.848a1.266,1.266,0,0,0,1.2.854h.759Z" transform="translate(-19.112 -0.358)" fill="#212121"/>
  </g>
</svg>
