<svg xmlns="http://www.w3.org/2000/svg" width="47.6" height="43.938" viewBox="0 0 47.6 43.938">
  <g id="noun_Email_4270634" transform="translate(-1 -2)">
    <g id="Layer_2" data-name="Layer 2" transform="translate(1 2)">
      <path id="Path_23" data-name="Path 23" d="M35.157,2H14.443A13.458,13.458,0,0,0,1,15.443V32.5A13.458,13.458,0,0,0,14.443,45.939H35.157A13.458,13.458,0,0,0,48.6,32.5V15.443A13.458,13.458,0,0,0,35.157,2ZM14.443,4.994H35.157c3.875.007,7.381,2.967,8.94,6.515L30.391,20.646a10.058,10.058,0,0,1-11.182,0L5.5,11.509C7.063,7.962,10.568,5,14.443,4.994Zm31.163,9.782V32.5c-.006,5.4-4.382,10.443-9.782,10.449H13.776C8.376,42.938,4,37.9,3.994,32.5V14.776c0-.031.667-.059.667-.09l12.506,8.339a13.714,13.714,0,0,0,15.247,0l12.524-8.339C44.939,14.717,45.606,14.745,45.606,14.776Z" transform="translate(-1 -2)" fill="#fff"/>
    </g>
  </g>
</svg>
