<svg xmlns="http://www.w3.org/2000/svg" width="61.761" height="61.503" viewBox="0 0 61.761 61.503">
  <g id="noun_service_3503113" transform="translate(-1.19 -1.25)">
    <path id="Path_12" data-name="Path 12" d="M61.189,34.14a4.059,4.059,0,0,0-5.74-.768L47.575,39.5a3.3,3.3,0,0,0-3.008-1.984h-10.5a19.93,19.93,0,0,0-10.348-1.386c-2.811.35-7.56,2.976-9,3.8l-.056-.1A3.484,3.484,0,0,0,9.89,38.56L2.247,42.967a.492.492,0,0,0-.18.672L12.519,61.754a.492.492,0,0,0,.672.18l7.644-4.417h0a3.458,3.458,0,0,0,1.647-3.808H42.215A8.9,8.9,0,0,0,48.4,51.232L60.735,39.514A4.055,4.055,0,0,0,61.189,34.14ZM20.341,56.666l-7.217,4.17L3.164,43.573l7.219-4.162a2.5,2.5,0,0,1,3.422.917l7.438,12.89.111.214a2.486,2.486,0,0,1-1.013,3.234ZM60.058,38.8,47.72,50.52a7.92,7.92,0,0,1-5.5,2.205H22.093L15.205,40.784c1.412-.806,6.041-3.357,8.632-3.68a19.1,19.1,0,0,1,9.9,1.342.5.5,0,0,0,.219.051H44.566a2.3,2.3,0,0,1,2.256,1.908l0,.008s0,.007,0,.012a1.8,1.8,0,0,1,.028.351,2.3,2.3,0,0,1-2.288,2.288H35.59a.492.492,0,1,0,0,.984h8.977a3.287,3.287,0,0,0,3.271-3.271c0-.075-.014-.147-.019-.221l8.232-6.4a3.141,3.141,0,0,1,4.352.581,3.071,3.071,0,0,1-.345,4.07ZM23.976,20.622l4.692,1a11.454,11.454,0,0,0,.756,1.835l-2.606,4.023a.492.492,0,0,0,.065.615l2.854,2.854a.491.491,0,0,0,.615.065l4.023-2.606a11.432,11.432,0,0,0,1.835.756l1,4.692a.492.492,0,0,0,.481.389h4.034a.492.492,0,0,0,.481-.389l1-4.692a11.466,11.466,0,0,0,1.835-.756l4.023,2.606a.491.491,0,0,0,.615-.065L52.539,28.1a.492.492,0,0,0,.065-.615L50,23.46a11.4,11.4,0,0,0,.756-1.835l4.692-1a.492.492,0,0,0,.389-.481V16.107a.492.492,0,0,0-.389-.481l-4.692-1A11.406,11.406,0,0,0,50,12.788L52.6,8.765a.492.492,0,0,0-.065-.615L49.685,5.3a.491.491,0,0,0-.615-.065L45.047,7.836a11.447,11.447,0,0,0-1.835-.756l-1-4.692A.492.492,0,0,0,41.728,2H37.694a.492.492,0,0,0-.481.389l-1,4.692a11.414,11.414,0,0,0-1.835.756L30.352,5.231a.491.491,0,0,0-.615.065L26.883,8.15a.491.491,0,0,0-.065.615l2.606,4.023a11.421,11.421,0,0,0-.756,1.835l-4.692,1a.492.492,0,0,0-.389.481v4.034a.492.492,0,0,0,.389.481ZM24.57,16.5l4.588-.981a.493.493,0,0,0,.37-.347,10.431,10.431,0,0,1,.9-2.177.491.491,0,0,0-.018-.5L27.859,8.564l2.292-2.292L34.083,8.82a.491.491,0,0,0,.5.018,10.421,10.421,0,0,1,2.177-.9.493.493,0,0,0,.347-.371l.981-4.588H41.33l.981,4.588a.492.492,0,0,0,.347.371,10.406,10.406,0,0,1,2.176.9.493.493,0,0,0,.5-.018l3.933-2.548,2.292,2.292L49.015,12.5A.491.491,0,0,0,49,13a10.421,10.421,0,0,1,.9,2.177.493.493,0,0,0,.371.347l4.588.981v3.239l-4.588.981a.493.493,0,0,0-.371.347,10.43,10.43,0,0,1-.9,2.176.491.491,0,0,0,.018.5l2.547,3.932-2.292,2.292-3.932-2.547a.492.492,0,0,0-.5-.018,10.422,10.422,0,0,1-2.176.9.493.493,0,0,0-.347.371l-.981,4.588H38.092l-.981-4.588a.493.493,0,0,0-.347-.371,10.436,10.436,0,0,1-2.177-.9.49.49,0,0,0-.5.018l-3.932,2.547-2.292-2.292,2.547-3.932a.491.491,0,0,0,.018-.5,10.425,10.425,0,0,1-.9-2.176.493.493,0,0,0-.37-.347l-4.589-.981Zm14.776,8.328a.492.492,0,0,0,.735,0l4.968-5.59a3.466,3.466,0,1,0-5.338-4.424,3.467,3.467,0,1,0-5.326,4.441ZM37.053,14.567a2.492,2.492,0,0,1,2.223,1.363.492.492,0,0,0,.438.267h0a.493.493,0,0,0,.438-.269A2.482,2.482,0,1,1,44.3,18.606l-4.587,5.16-4.579-5.143a2.485,2.485,0,0,1,1.919-4.056Z" fill="none" stroke="#212121" stroke-width="1.5"/>
  </g>
</svg>
