<svg xmlns="http://www.w3.org/2000/svg" width="40.191" height="64.118" viewBox="0 0 40.191 64.118">
  <g id="noun_innovative_technology_2102003" data-name="noun_innovative technology_2102003" transform="translate(-12.8 -0.982)">
    <g id="Group_4" data-name="Group 4">
      <path id="Path_3" data-name="Path 3" d="M46.9,63.1H42.2c-.7-2.5-4.2-4.6-8.3-4.9V52.7h6.3a3.159,3.159,0,0,0,3.2-3.2,3.121,3.121,0,0,0-2.2-3,16.653,16.653,0,0,1,5.1-10.3,19.912,19.912,0,0,0,6.6-16.9A19.936,19.936,0,0,0,35.3,1.1a20.2,20.2,0,0,0-15.9,35,16.175,16.175,0,0,1,5.3,10.4,3.121,3.121,0,0,0-2.2,3,3.159,3.159,0,0,0,3.2,3.2H32v5.5c-4.1.3-7.5,2.4-8.3,4.9H19a1,1,0,0,0,0,2H46.9a1,1,0,0,0,1-1A.945.945,0,0,0,46.9,63.1ZM20.8,34.6a18.225,18.225,0,1,1,24.4.1,17.782,17.782,0,0,0-5.8,11.6H34V37.5l5.4-5.4a3.536,3.536,0,0,0,4.2-5.6,3.693,3.693,0,0,0-5,0,3.48,3.48,0,0,0-.6,4.2l-4,4V21.6l3-3a3.779,3.779,0,0,0,4.6-.6,3.748,3.748,0,1,0-5.3-5.3,3.76,3.76,0,0,0-.6,4.6l-3.3,3.3a.908.908,0,0,0-.3.7v5.6l-4.3-4.3a3.459,3.459,0,0,0-.6-4.2,3.536,3.536,0,1,0-.8,5.6l5.7,5.7V46.4H26.8A19,19,0,0,0,20.8,34.6Zm19.1-6.7a1.626,1.626,0,0,1,2.3,2.3h0a1.626,1.626,0,1,1-2.3-2.3ZM37.5,14a1.838,1.838,0,1,1,2.6,2.6h0A1.838,1.838,0,0,1,37.5,14Zm-14,7.9a1.626,1.626,0,1,1,2.3,0A1.694,1.694,0,0,1,23.5,21.9Zm1,27.6a1.324,1.324,0,0,1,1.3-1.3H40.3a1.3,1.3,0,0,1,0,2.6H25.8A1.324,1.324,0,0,1,24.5,49.5Zm1.3,13.6c.9-1.5,3.8-2.9,7.2-2.9s6.2,1.4,7.2,2.9Z" fill="#212121"/>
    </g>
  </g>
</svg>
