<svg xmlns="http://www.w3.org/2000/svg" width="42.057" height="55.2" viewBox="0 0 42.057 55.2">
  <g id="noun_Location_1631769" transform="translate(-4 -2)">
    <g id="Group_42" data-name="Group 42" transform="translate(4 2)">
      <path id="Path_22" data-name="Path 22" d="M25.029,4.629a18.421,18.421,0,0,1,18.4,18.4c0,13.7-13.656,26.669-18.4,30.761C20.28,49.7,6.629,36.76,6.629,23.029a18.421,18.421,0,0,1,18.4-18.4m0-2.629A21.029,21.029,0,0,0,4,23.029C4,41.053,25.029,57.2,25.029,57.2S46.057,41.053,46.057,23.029A21.029,21.029,0,0,0,25.029,2Zm0,13.143a7.886,7.886,0,1,1-7.886,7.886,7.895,7.895,0,0,1,7.886-7.886m0-2.629A10.514,10.514,0,1,0,35.543,23.029,10.514,10.514,0,0,0,25.029,12.514Z" transform="translate(-4 -2)" fill="#fff"/>
    </g>
  </g>
</svg>
